%TF.GenerationSoftware,KiCad,Pcbnew,7.0.6*%
%TF.CreationDate,2024-10-30T00:01:58+09:00*%
%TF.ProjectId,frontpanel,66726f6e-7470-4616-9e65-6c2e6b696361,rev?*%
%TF.SameCoordinates,Original*%
%TF.FileFunction,Legend,Bot*%
%TF.FilePolarity,Positive*%
%FSLAX46Y46*%
G04 Gerber Fmt 4.6, Leading zero omitted, Abs format (unit mm)*
G04 Created by KiCad (PCBNEW 7.0.6) date 2024-10-30 00:01:58*
%MOMM*%
%LPD*%
G01*
G04 APERTURE LIST*
%ADD10C,0.300000*%
%ADD11C,0.400000*%
%ADD12C,0.260000*%
%ADD13C,0.600000*%
G04 APERTURE END LIST*
D10*
X57969600Y-49797200D02*
X57156800Y-49797200D01*
X69475800Y-61582800D02*
X69856800Y-60947800D01*
X73260400Y-86678000D02*
X74174800Y-86678000D01*
X61347800Y-79337400D02*
X61703400Y-79947000D01*
X73260400Y-68288400D02*
X74174800Y-68288400D01*
X69501200Y-56401200D02*
X69933000Y-57137800D01*
X61805000Y-56477400D02*
X61398600Y-57163200D01*
X69475800Y-79972400D02*
X69856800Y-79337400D01*
X73260400Y-49898800D02*
X74174800Y-49898800D01*
X69501200Y-74790800D02*
X69933000Y-75527400D01*
X61347800Y-60947800D02*
X61703400Y-61557400D01*
X61805000Y-74867000D02*
X61398600Y-75552800D01*
X69501200Y-93180400D02*
X69933000Y-93917000D01*
X61805000Y-93256600D02*
X61398600Y-93942400D01*
X61347800Y-42558200D02*
X61703400Y-43167800D01*
X57969600Y-68186800D02*
X57156800Y-68186800D01*
X57969600Y-86576400D02*
X57156800Y-86576400D01*
X69475800Y-43193200D02*
X69856800Y-42558200D01*
D11*
G36*
X62232393Y-134699600D02*
G01*
X62232393Y-132667499D01*
X60851933Y-132667499D01*
X60851933Y-133011393D01*
X61825973Y-133011393D01*
X61825973Y-133480339D01*
X60985289Y-133480339D01*
X60985289Y-133824233D01*
X61825973Y-133824233D01*
X61825973Y-134699600D01*
X62232393Y-134699600D01*
G37*
G36*
X59306852Y-134324442D02*
G01*
X59306852Y-134699600D01*
X60660446Y-134699600D01*
X60657355Y-134674465D01*
X60653577Y-134649499D01*
X60649112Y-134624701D01*
X60643960Y-134600071D01*
X60638121Y-134575608D01*
X60631595Y-134551314D01*
X60624382Y-134527187D01*
X60616482Y-134503228D01*
X60607896Y-134479437D01*
X60598622Y-134455815D01*
X60588662Y-134432360D01*
X60578014Y-134409073D01*
X60566680Y-134385954D01*
X60554658Y-134363002D01*
X60541950Y-134340219D01*
X60528555Y-134317604D01*
X60513979Y-134294551D01*
X60497727Y-134270579D01*
X60479800Y-134245688D01*
X60460198Y-134219876D01*
X60438920Y-134193145D01*
X60415967Y-134165494D01*
X60391338Y-134136923D01*
X60365034Y-134107433D01*
X60351254Y-134092343D01*
X60337055Y-134077023D01*
X60322437Y-134061473D01*
X60307401Y-134045693D01*
X60291945Y-134029683D01*
X60276071Y-134013443D01*
X60259778Y-133996973D01*
X60243066Y-133980274D01*
X60225935Y-133963344D01*
X60208385Y-133946185D01*
X60190416Y-133928795D01*
X60172029Y-133911176D01*
X60153223Y-133893327D01*
X60133998Y-133875247D01*
X60114354Y-133856938D01*
X60094291Y-133838399D01*
X60078155Y-133823469D01*
X60062414Y-133808844D01*
X60047067Y-133794523D01*
X60032116Y-133780506D01*
X60017560Y-133766794D01*
X59989632Y-133740282D01*
X59963284Y-133714987D01*
X59938517Y-133690910D01*
X59915329Y-133668051D01*
X59893721Y-133646409D01*
X59873693Y-133625984D01*
X59855245Y-133606776D01*
X59838377Y-133588786D01*
X59823089Y-133572014D01*
X59809381Y-133556459D01*
X59791781Y-133535408D01*
X59777736Y-133517097D01*
X59773845Y-133511602D01*
X59759615Y-133489371D01*
X59746785Y-133467192D01*
X59735355Y-133445064D01*
X59725324Y-133422988D01*
X59716693Y-133400963D01*
X59709462Y-133378990D01*
X59703630Y-133357068D01*
X59699198Y-133335198D01*
X59696165Y-133313379D01*
X59694532Y-133291612D01*
X59694221Y-133277129D01*
X59694831Y-133253652D01*
X59696660Y-133231213D01*
X59699708Y-133209814D01*
X59703976Y-133189454D01*
X59709463Y-133170132D01*
X59718675Y-133145986D01*
X59730055Y-133123688D01*
X59743603Y-133103236D01*
X59759319Y-133084632D01*
X59763586Y-133080269D01*
X59781752Y-133064126D01*
X59801566Y-133050136D01*
X59823029Y-133038298D01*
X59846140Y-133028612D01*
X59870901Y-133021079D01*
X59890553Y-133016841D01*
X59911132Y-133013814D01*
X59932639Y-133011998D01*
X59955073Y-133011393D01*
X59977349Y-133012028D01*
X59998750Y-133013935D01*
X60019275Y-133017112D01*
X60038924Y-133021560D01*
X60057698Y-133027278D01*
X60081366Y-133036880D01*
X60103478Y-133048741D01*
X60124033Y-133062861D01*
X60143030Y-133079241D01*
X60147536Y-133083689D01*
X60164427Y-133103259D01*
X60175863Y-133119900D01*
X60186243Y-133138224D01*
X60195567Y-133158231D01*
X60203834Y-133179921D01*
X60211045Y-133203293D01*
X60217201Y-133228349D01*
X60222300Y-133255088D01*
X60226343Y-133283510D01*
X60228451Y-133303393D01*
X60230090Y-133324024D01*
X60615017Y-133285922D01*
X60612736Y-133265436D01*
X60610168Y-133245315D01*
X60607313Y-133225559D01*
X60604171Y-133206169D01*
X60597025Y-133168485D01*
X60588730Y-133132263D01*
X60579287Y-133097502D01*
X60568695Y-133064203D01*
X60556954Y-133032365D01*
X60544064Y-133001990D01*
X60530026Y-132973075D01*
X60514839Y-132945623D01*
X60498504Y-132919632D01*
X60481019Y-132895103D01*
X60462386Y-132872035D01*
X60442604Y-132850429D01*
X60421674Y-132830285D01*
X60399595Y-132811602D01*
X60376527Y-132794152D01*
X60352754Y-132777828D01*
X60328274Y-132762630D01*
X60303088Y-132748557D01*
X60277197Y-132735610D01*
X60250599Y-132723789D01*
X60223295Y-132713094D01*
X60195286Y-132703525D01*
X60166570Y-132695081D01*
X60137148Y-132687764D01*
X60107020Y-132681572D01*
X60076187Y-132676505D01*
X60044647Y-132672565D01*
X60012401Y-132669751D01*
X59979449Y-132668062D01*
X59945792Y-132667499D01*
X59909043Y-132668125D01*
X59873290Y-132670003D01*
X59838533Y-132673132D01*
X59804772Y-132677513D01*
X59772007Y-132683146D01*
X59740238Y-132690030D01*
X59709466Y-132698167D01*
X59679689Y-132707555D01*
X59650908Y-132718195D01*
X59623124Y-132730086D01*
X59596335Y-132743230D01*
X59570543Y-132757625D01*
X59545747Y-132773271D01*
X59521946Y-132790170D01*
X59499142Y-132808320D01*
X59477334Y-132827722D01*
X59456690Y-132847996D01*
X59437377Y-132868885D01*
X59419397Y-132890388D01*
X59402748Y-132912505D01*
X59387431Y-132935237D01*
X59373447Y-132958583D01*
X59360794Y-132982544D01*
X59349473Y-133007119D01*
X59339483Y-133032308D01*
X59330826Y-133058112D01*
X59323501Y-133084530D01*
X59317507Y-133111563D01*
X59312846Y-133139210D01*
X59309516Y-133167472D01*
X59307518Y-133196348D01*
X59306852Y-133225838D01*
X59307282Y-133251097D01*
X59308570Y-133276133D01*
X59310716Y-133300946D01*
X59313722Y-133325535D01*
X59317586Y-133349901D01*
X59322308Y-133374044D01*
X59327890Y-133397964D01*
X59334330Y-133421660D01*
X59341628Y-133445133D01*
X59349786Y-133468383D01*
X59355701Y-133483759D01*
X59365358Y-133506764D01*
X59376011Y-133529983D01*
X59387660Y-133553418D01*
X59400306Y-133577067D01*
X59413947Y-133600931D01*
X59428584Y-133625009D01*
X59444218Y-133649302D01*
X59455194Y-133665617D01*
X59466612Y-133682027D01*
X59478473Y-133698533D01*
X59490777Y-133715133D01*
X59503523Y-133731830D01*
X59510062Y-133740214D01*
X59524239Y-133757570D01*
X59540390Y-133776300D01*
X59558517Y-133796405D01*
X59578618Y-133817883D01*
X59593116Y-133832965D01*
X59608492Y-133848657D01*
X59624746Y-133864961D01*
X59641877Y-133881874D01*
X59659886Y-133899399D01*
X59678773Y-133917534D01*
X59698538Y-133936280D01*
X59719180Y-133955636D01*
X59740700Y-133975603D01*
X59763098Y-133996180D01*
X59785412Y-134016567D01*
X59806680Y-134036083D01*
X59826903Y-134054730D01*
X59846079Y-134072506D01*
X59864211Y-134089412D01*
X59881296Y-134105448D01*
X59897336Y-134120614D01*
X59912330Y-134134910D01*
X59932861Y-134154722D01*
X59951039Y-134172577D01*
X59966864Y-134188474D01*
X59984305Y-134206624D01*
X59994640Y-134217953D01*
X60009452Y-134234978D01*
X60023358Y-134251860D01*
X60036357Y-134268600D01*
X60048450Y-134285196D01*
X60059636Y-134301649D01*
X60071864Y-134321203D01*
X60073775Y-134324442D01*
X59306852Y-134324442D01*
G37*
G36*
X69093324Y-96599600D02*
G01*
X68686415Y-96599600D01*
X68686415Y-95818022D01*
X68421168Y-95818022D01*
X68404045Y-95817994D01*
X68370565Y-95817769D01*
X68338104Y-95817319D01*
X68306661Y-95816643D01*
X68276238Y-95815743D01*
X68246833Y-95814617D01*
X68218448Y-95813266D01*
X68191081Y-95811690D01*
X68164733Y-95809888D01*
X68139404Y-95807862D01*
X68115095Y-95805610D01*
X68091804Y-95803134D01*
X68069532Y-95800432D01*
X68048279Y-95797505D01*
X68028045Y-95794352D01*
X67999605Y-95789202D01*
X67986186Y-95786082D01*
X67966117Y-95780694D01*
X67946115Y-95774456D01*
X67926183Y-95767367D01*
X67906319Y-95759429D01*
X67886524Y-95750640D01*
X67866797Y-95741002D01*
X67847140Y-95730513D01*
X67827551Y-95719175D01*
X67808030Y-95706986D01*
X67788579Y-95693947D01*
X67775775Y-95684759D01*
X67757099Y-95670183D01*
X67739058Y-95654654D01*
X67721653Y-95638172D01*
X67704884Y-95620737D01*
X67688749Y-95602349D01*
X67673250Y-95583007D01*
X67658387Y-95562713D01*
X67644159Y-95541465D01*
X67630566Y-95519264D01*
X67617609Y-95496110D01*
X67609446Y-95480128D01*
X67598189Y-95455295D01*
X67588116Y-95429432D01*
X67579229Y-95402539D01*
X67571527Y-95374615D01*
X67567050Y-95355426D01*
X67563101Y-95335780D01*
X67559677Y-95315676D01*
X67556781Y-95295114D01*
X67554411Y-95274094D01*
X67552568Y-95252615D01*
X67551251Y-95230679D01*
X67550461Y-95208285D01*
X67550265Y-95191295D01*
X67969318Y-95191295D01*
X67970036Y-95212941D01*
X67972188Y-95233916D01*
X67975776Y-95254218D01*
X67980798Y-95273849D01*
X67987255Y-95292809D01*
X67995147Y-95311096D01*
X68004474Y-95328712D01*
X68015236Y-95345657D01*
X68027265Y-95361716D01*
X68040393Y-95376676D01*
X68054620Y-95390536D01*
X68069946Y-95403298D01*
X68086372Y-95414961D01*
X68103896Y-95425524D01*
X68122520Y-95434989D01*
X68142242Y-95443354D01*
X68147466Y-95445247D01*
X68171470Y-95452220D01*
X68192740Y-95456818D01*
X68216808Y-95460875D01*
X68243676Y-95464391D01*
X68263143Y-95466435D01*
X68283854Y-95468238D01*
X68305809Y-95469801D01*
X68329008Y-95471123D01*
X68353451Y-95472205D01*
X68379139Y-95473047D01*
X68406070Y-95473648D01*
X68434246Y-95474008D01*
X68463666Y-95474128D01*
X68686415Y-95474128D01*
X68686415Y-94911393D01*
X68490044Y-94911393D01*
X68463141Y-94911446D01*
X68437387Y-94911607D01*
X68412781Y-94911874D01*
X68389325Y-94912248D01*
X68367016Y-94912729D01*
X68345857Y-94913316D01*
X68316272Y-94914398D01*
X68289271Y-94915721D01*
X68264855Y-94917283D01*
X68243023Y-94919087D01*
X68217935Y-94921865D01*
X68197441Y-94925071D01*
X68173192Y-94930291D01*
X68150028Y-94937161D01*
X68127947Y-94945679D01*
X68106949Y-94955845D01*
X68087036Y-94967660D01*
X68068206Y-94981124D01*
X68050460Y-94996237D01*
X68033799Y-95012998D01*
X68029831Y-95017431D01*
X68015223Y-95035898D01*
X68002629Y-95055541D01*
X67992050Y-95076358D01*
X67983486Y-95098352D01*
X67976938Y-95121520D01*
X67972404Y-95145865D01*
X67969885Y-95171384D01*
X67969318Y-95191295D01*
X67550265Y-95191295D01*
X67550198Y-95185433D01*
X67550654Y-95155798D01*
X67552022Y-95126853D01*
X67554302Y-95098599D01*
X67557494Y-95071036D01*
X67561599Y-95044164D01*
X67566615Y-95017982D01*
X67572544Y-94992491D01*
X67579385Y-94967691D01*
X67587138Y-94943581D01*
X67595802Y-94920163D01*
X67605379Y-94897435D01*
X67615868Y-94875398D01*
X67627270Y-94854051D01*
X67639583Y-94833396D01*
X67652808Y-94813431D01*
X67666946Y-94794156D01*
X67681761Y-94775644D01*
X67697018Y-94757963D01*
X67712718Y-94741114D01*
X67728861Y-94725097D01*
X67745447Y-94709912D01*
X67762475Y-94695559D01*
X67779946Y-94682037D01*
X67797860Y-94669348D01*
X67816216Y-94657491D01*
X67835015Y-94646466D01*
X67854257Y-94636272D01*
X67873942Y-94626911D01*
X67894069Y-94618382D01*
X67914639Y-94610684D01*
X67935651Y-94603819D01*
X67957106Y-94597785D01*
X67972162Y-94594118D01*
X67998537Y-94589060D01*
X68018649Y-94585984D01*
X68040783Y-94583145D01*
X68064940Y-94580542D01*
X68091120Y-94578176D01*
X68119323Y-94576047D01*
X68149548Y-94574154D01*
X68181795Y-94572497D01*
X68216066Y-94571078D01*
X68252359Y-94569895D01*
X68290674Y-94568948D01*
X68310591Y-94568564D01*
X68331012Y-94568238D01*
X68351940Y-94567972D01*
X68373373Y-94567765D01*
X68395312Y-94567617D01*
X68417757Y-94567529D01*
X68440707Y-94567499D01*
X69093324Y-94567499D01*
X69093324Y-96599600D01*
G37*
G36*
X66366313Y-94536549D02*
G01*
X66396356Y-94537488D01*
X66425954Y-94539052D01*
X66455104Y-94541243D01*
X66483809Y-94544059D01*
X66512066Y-94547502D01*
X66539878Y-94551570D01*
X66567242Y-94556264D01*
X66594161Y-94561584D01*
X66620632Y-94567530D01*
X66646658Y-94574101D01*
X66672236Y-94581299D01*
X66697368Y-94589122D01*
X66722054Y-94597571D01*
X66746293Y-94606647D01*
X66770086Y-94616348D01*
X66778888Y-94620134D01*
X66805036Y-94632239D01*
X66830797Y-94645459D01*
X66856172Y-94659796D01*
X66872874Y-94669974D01*
X66889404Y-94680648D01*
X66905763Y-94691819D01*
X66921950Y-94703485D01*
X66937965Y-94715648D01*
X66953808Y-94728306D01*
X66969480Y-94741461D01*
X66984980Y-94755112D01*
X67000308Y-94769259D01*
X67015464Y-94783902D01*
X67030449Y-94799041D01*
X67045092Y-94814493D01*
X67059346Y-94830197D01*
X67073210Y-94846153D01*
X67086686Y-94862361D01*
X67099772Y-94878821D01*
X67112469Y-94895532D01*
X67124776Y-94912496D01*
X67136695Y-94929711D01*
X67148224Y-94947178D01*
X67159363Y-94964897D01*
X67170114Y-94982868D01*
X67180475Y-95001091D01*
X67190447Y-95019566D01*
X67200030Y-95038292D01*
X67209223Y-95057271D01*
X67218027Y-95076501D01*
X67229148Y-95103145D01*
X67239551Y-95130563D01*
X67249237Y-95158756D01*
X67258205Y-95187723D01*
X67266456Y-95217465D01*
X67273990Y-95247982D01*
X67280805Y-95279274D01*
X67286904Y-95311341D01*
X67292285Y-95344182D01*
X67296948Y-95377798D01*
X67300894Y-95412188D01*
X67304123Y-95447353D01*
X67306634Y-95483293D01*
X67308428Y-95520008D01*
X67309504Y-95557497D01*
X67309863Y-95595761D01*
X67309604Y-95625784D01*
X67308827Y-95655401D01*
X67307531Y-95684612D01*
X67305718Y-95713418D01*
X67303387Y-95741818D01*
X67300538Y-95769813D01*
X67297170Y-95797402D01*
X67293285Y-95824586D01*
X67288881Y-95851365D01*
X67283960Y-95877738D01*
X67278520Y-95903705D01*
X67272562Y-95929267D01*
X67266086Y-95954424D01*
X67259093Y-95979175D01*
X67251581Y-96003521D01*
X67243551Y-96027461D01*
X67235003Y-96050995D01*
X67225937Y-96074124D01*
X67216353Y-96096848D01*
X67206250Y-96119166D01*
X67195630Y-96141079D01*
X67184492Y-96162586D01*
X67172835Y-96183688D01*
X67160661Y-96204384D01*
X67147968Y-96224675D01*
X67134758Y-96244560D01*
X67121029Y-96264040D01*
X67106782Y-96283114D01*
X67092018Y-96301783D01*
X67076735Y-96320046D01*
X67060934Y-96337904D01*
X67044615Y-96355357D01*
X67027857Y-96372307D01*
X67010740Y-96388719D01*
X66993262Y-96404593D01*
X66975426Y-96419928D01*
X66957229Y-96434726D01*
X66938673Y-96448986D01*
X66919757Y-96462707D01*
X66900481Y-96475890D01*
X66880846Y-96488536D01*
X66860851Y-96500643D01*
X66840496Y-96512212D01*
X66819782Y-96523243D01*
X66798708Y-96533736D01*
X66777274Y-96543691D01*
X66755481Y-96553107D01*
X66733327Y-96561986D01*
X66710815Y-96570327D01*
X66687942Y-96578129D01*
X66664710Y-96585393D01*
X66641118Y-96592120D01*
X66617167Y-96598308D01*
X66592855Y-96603958D01*
X66568184Y-96609070D01*
X66543154Y-96613643D01*
X66517764Y-96617679D01*
X66492014Y-96621177D01*
X66465904Y-96624136D01*
X66439435Y-96626558D01*
X66412606Y-96628441D01*
X66385417Y-96629786D01*
X66357869Y-96630594D01*
X66329960Y-96630863D01*
X66302413Y-96630592D01*
X66275214Y-96629781D01*
X66248363Y-96628428D01*
X66221860Y-96626535D01*
X66195706Y-96624101D01*
X66169899Y-96621125D01*
X66144441Y-96617609D01*
X66119331Y-96613552D01*
X66094570Y-96608954D01*
X66070157Y-96603815D01*
X66046092Y-96598135D01*
X66022375Y-96591913D01*
X65999006Y-96585151D01*
X65975986Y-96577849D01*
X65953314Y-96570005D01*
X65930990Y-96561620D01*
X65909014Y-96552694D01*
X65887387Y-96543227D01*
X65866107Y-96533219D01*
X65845177Y-96522671D01*
X65824594Y-96511581D01*
X65804359Y-96499950D01*
X65784473Y-96487779D01*
X65764935Y-96475066D01*
X65745745Y-96461813D01*
X65726904Y-96448018D01*
X65708411Y-96433683D01*
X65690266Y-96418806D01*
X65672469Y-96403389D01*
X65655020Y-96387431D01*
X65637920Y-96370931D01*
X65621168Y-96353891D01*
X65604849Y-96336372D01*
X65589048Y-96318436D01*
X65573765Y-96300083D01*
X65559000Y-96281313D01*
X65544754Y-96262126D01*
X65531025Y-96242522D01*
X65517814Y-96222501D01*
X65505122Y-96202064D01*
X65492947Y-96181209D01*
X65481291Y-96159938D01*
X65470153Y-96138249D01*
X65459532Y-96116144D01*
X65449430Y-96093621D01*
X65439846Y-96070682D01*
X65430780Y-96047326D01*
X65422232Y-96023553D01*
X65414202Y-95999363D01*
X65406690Y-95974756D01*
X65399696Y-95949732D01*
X65393220Y-95924291D01*
X65387263Y-95898433D01*
X65381823Y-95872158D01*
X65376901Y-95845467D01*
X65372498Y-95818358D01*
X65368612Y-95790833D01*
X65365245Y-95762890D01*
X65362396Y-95734531D01*
X65360064Y-95705755D01*
X65358251Y-95676561D01*
X65356956Y-95646951D01*
X65356179Y-95616924D01*
X65355920Y-95586480D01*
X65356003Y-95576710D01*
X65776506Y-95576710D01*
X65776658Y-95598733D01*
X65777115Y-95620409D01*
X65777876Y-95641739D01*
X65778941Y-95662722D01*
X65780310Y-95683359D01*
X65781984Y-95703650D01*
X65783963Y-95723594D01*
X65786245Y-95743192D01*
X65791724Y-95781350D01*
X65798419Y-95818122D01*
X65806332Y-95853508D01*
X65815463Y-95887509D01*
X65825811Y-95920125D01*
X65837376Y-95951356D01*
X65850159Y-95981201D01*
X65864159Y-96009661D01*
X65879376Y-96036736D01*
X65895811Y-96062426D01*
X65913463Y-96086730D01*
X65932333Y-96109648D01*
X65952153Y-96131121D01*
X65972656Y-96151208D01*
X65993842Y-96169910D01*
X66015711Y-96187226D01*
X66038264Y-96203157D01*
X66061499Y-96217703D01*
X66085418Y-96230863D01*
X66110020Y-96242639D01*
X66135305Y-96253028D01*
X66161273Y-96262033D01*
X66187924Y-96269652D01*
X66215258Y-96275886D01*
X66243275Y-96280735D01*
X66271976Y-96284198D01*
X66301359Y-96286276D01*
X66331426Y-96286969D01*
X66361502Y-96286270D01*
X66390914Y-96284175D01*
X66419662Y-96280683D01*
X66447747Y-96275795D01*
X66475167Y-96269509D01*
X66501923Y-96261827D01*
X66528015Y-96252748D01*
X66553443Y-96242272D01*
X66578207Y-96230400D01*
X66602306Y-96217130D01*
X66625742Y-96202464D01*
X66648514Y-96186402D01*
X66670622Y-96168942D01*
X66692066Y-96150086D01*
X66712845Y-96129833D01*
X66732961Y-96108183D01*
X66742668Y-96096815D01*
X66761158Y-96073096D01*
X66778416Y-96048069D01*
X66794440Y-96021733D01*
X66809232Y-95994088D01*
X66822791Y-95965133D01*
X66835118Y-95934870D01*
X66846212Y-95903298D01*
X66856073Y-95870417D01*
X66864702Y-95836227D01*
X66872098Y-95800727D01*
X66878261Y-95763919D01*
X66883192Y-95725802D01*
X66885195Y-95706253D01*
X66886890Y-95686376D01*
X66888277Y-95666172D01*
X66889355Y-95645641D01*
X66890126Y-95624782D01*
X66890588Y-95603597D01*
X66890742Y-95582084D01*
X66890592Y-95560245D01*
X66890141Y-95538752D01*
X66889390Y-95517605D01*
X66888338Y-95496805D01*
X66886985Y-95476351D01*
X66885332Y-95456243D01*
X66883379Y-95436482D01*
X66881125Y-95417067D01*
X66875715Y-95379276D01*
X66869104Y-95342871D01*
X66861290Y-95307851D01*
X66852274Y-95274216D01*
X66842056Y-95241966D01*
X66830635Y-95211102D01*
X66818013Y-95181623D01*
X66804188Y-95153529D01*
X66789162Y-95126821D01*
X66772933Y-95101498D01*
X66755502Y-95077560D01*
X66736869Y-95055008D01*
X66717253Y-95033831D01*
X66696874Y-95014021D01*
X66675732Y-94995577D01*
X66653826Y-94978499D01*
X66631158Y-94962787D01*
X66607726Y-94948442D01*
X66583530Y-94935462D01*
X66558572Y-94923849D01*
X66532850Y-94913603D01*
X66506365Y-94904722D01*
X66479116Y-94897208D01*
X66451105Y-94891060D01*
X66422330Y-94886278D01*
X66392792Y-94882862D01*
X66362491Y-94880813D01*
X66331426Y-94880130D01*
X66300428Y-94880805D01*
X66270205Y-94882832D01*
X66240756Y-94886209D01*
X66212083Y-94890938D01*
X66184184Y-94897017D01*
X66157059Y-94904447D01*
X66130710Y-94913229D01*
X66105135Y-94923361D01*
X66080335Y-94934844D01*
X66056309Y-94947678D01*
X66033058Y-94961863D01*
X66010582Y-94977400D01*
X65988881Y-94994287D01*
X65967954Y-95012525D01*
X65947802Y-95032114D01*
X65928425Y-95053054D01*
X65919079Y-95064006D01*
X65901276Y-95086957D01*
X65884659Y-95111305D01*
X65869230Y-95137049D01*
X65854988Y-95164191D01*
X65841932Y-95192729D01*
X65830064Y-95222664D01*
X65819382Y-95253996D01*
X65809887Y-95286725D01*
X65801579Y-95320850D01*
X65794458Y-95356372D01*
X65788523Y-95393291D01*
X65783776Y-95431606D01*
X65781847Y-95451288D01*
X65780215Y-95471319D01*
X65778880Y-95491699D01*
X65777841Y-95512428D01*
X65777100Y-95533506D01*
X65776654Y-95554934D01*
X65776506Y-95576710D01*
X65356003Y-95576710D01*
X65356181Y-95555765D01*
X65356964Y-95525475D01*
X65358268Y-95495609D01*
X65360095Y-95466168D01*
X65362443Y-95437151D01*
X65365314Y-95408559D01*
X65368706Y-95380391D01*
X65372620Y-95352648D01*
X65377056Y-95325330D01*
X65382014Y-95298436D01*
X65387494Y-95271966D01*
X65393495Y-95245922D01*
X65400019Y-95220301D01*
X65407064Y-95195106D01*
X65414631Y-95170335D01*
X65422720Y-95145988D01*
X65431331Y-95122066D01*
X65440464Y-95098569D01*
X65450119Y-95075496D01*
X65460296Y-95052848D01*
X65470994Y-95030624D01*
X65482214Y-95008825D01*
X65493957Y-94987450D01*
X65506221Y-94966500D01*
X65519007Y-94945975D01*
X65532315Y-94925874D01*
X65546145Y-94906198D01*
X65560496Y-94886946D01*
X65575370Y-94868119D01*
X65590765Y-94849716D01*
X65606682Y-94831738D01*
X65623122Y-94814184D01*
X65639996Y-94797084D01*
X65657218Y-94780526D01*
X65674789Y-94764512D01*
X65692708Y-94749040D01*
X65710975Y-94734111D01*
X65729591Y-94719725D01*
X65748554Y-94705882D01*
X65767866Y-94692582D01*
X65787526Y-94679824D01*
X65807535Y-94667610D01*
X65827891Y-94655938D01*
X65848596Y-94644810D01*
X65869649Y-94634224D01*
X65891050Y-94624181D01*
X65912800Y-94614680D01*
X65934898Y-94605723D01*
X65957344Y-94597309D01*
X65980138Y-94589437D01*
X66003280Y-94582108D01*
X66026771Y-94575322D01*
X66050610Y-94569079D01*
X66074797Y-94563379D01*
X66099333Y-94558222D01*
X66124216Y-94553608D01*
X66149448Y-94549536D01*
X66175028Y-94546008D01*
X66200957Y-94543022D01*
X66227233Y-94540579D01*
X66253858Y-94538679D01*
X66280831Y-94537322D01*
X66308153Y-94536507D01*
X66335822Y-94536236D01*
X66366313Y-94536549D01*
G37*
G36*
X64597302Y-96599600D02*
G01*
X64597302Y-94911393D01*
X65194720Y-94911393D01*
X65194720Y-94567499D01*
X63594441Y-94567499D01*
X63594441Y-94911393D01*
X64190393Y-94911393D01*
X64190393Y-96599600D01*
X64597302Y-96599600D01*
G37*
G36*
X63439591Y-96022698D02*
G01*
X63065899Y-95974338D01*
X63061982Y-96002196D01*
X63057009Y-96028800D01*
X63050980Y-96054151D01*
X63043894Y-96078248D01*
X63035753Y-96101091D01*
X63026555Y-96122681D01*
X63016301Y-96143017D01*
X63004991Y-96162100D01*
X62992625Y-96179928D01*
X62979202Y-96196503D01*
X62969667Y-96206857D01*
X62954721Y-96221174D01*
X62939190Y-96234082D01*
X62923076Y-96245583D01*
X62900682Y-96258726D01*
X62877250Y-96269366D01*
X62852780Y-96277502D01*
X62833746Y-96281962D01*
X62814129Y-96285013D01*
X62793927Y-96286656D01*
X62780135Y-96286969D01*
X62758117Y-96286166D01*
X62736761Y-96283757D01*
X62716065Y-96279743D01*
X62696031Y-96274123D01*
X62676658Y-96266897D01*
X62657947Y-96258066D01*
X62639896Y-96247629D01*
X62622507Y-96235586D01*
X62605778Y-96221938D01*
X62589711Y-96206683D01*
X62579367Y-96195622D01*
X62564701Y-96177932D01*
X62551478Y-96159117D01*
X62539697Y-96139177D01*
X62529359Y-96118113D01*
X62520463Y-96095924D01*
X62513010Y-96072609D01*
X62506999Y-96048170D01*
X62502431Y-96022606D01*
X62499305Y-95995918D01*
X62497622Y-95968104D01*
X62497302Y-95948937D01*
X62497993Y-95921992D01*
X62500067Y-95896111D01*
X62503523Y-95871296D01*
X62508361Y-95847545D01*
X62514582Y-95824859D01*
X62522186Y-95803238D01*
X62531172Y-95782682D01*
X62541540Y-95763190D01*
X62553291Y-95744763D01*
X62566424Y-95727401D01*
X62575948Y-95716417D01*
X62590903Y-95701053D01*
X62606459Y-95687200D01*
X62622616Y-95674858D01*
X62639375Y-95664027D01*
X62656734Y-95654708D01*
X62674694Y-95646900D01*
X62693256Y-95640603D01*
X62712419Y-95635817D01*
X62732182Y-95632543D01*
X62752547Y-95630780D01*
X62766457Y-95630444D01*
X62790364Y-95631148D01*
X62810503Y-95632724D01*
X62831542Y-95635200D01*
X62853482Y-95638578D01*
X62876322Y-95642856D01*
X62900063Y-95648035D01*
X62924705Y-95654114D01*
X62943778Y-95659265D01*
X62901279Y-95349076D01*
X62872535Y-95349199D01*
X62845105Y-95348103D01*
X62818989Y-95345787D01*
X62794186Y-95342253D01*
X62770698Y-95337498D01*
X62748523Y-95331525D01*
X62727661Y-95324332D01*
X62708114Y-95315920D01*
X62689880Y-95306289D01*
X62672960Y-95295438D01*
X62662410Y-95287527D01*
X62643061Y-95270491D01*
X62626292Y-95252112D01*
X62612103Y-95232389D01*
X62600494Y-95211323D01*
X62591465Y-95188914D01*
X62585015Y-95165161D01*
X62581146Y-95140065D01*
X62579936Y-95120362D01*
X62579856Y-95113626D01*
X62580802Y-95091133D01*
X62583642Y-95069815D01*
X62588374Y-95049673D01*
X62594999Y-95030706D01*
X62603517Y-95012914D01*
X62613928Y-94996298D01*
X62626231Y-94980857D01*
X62640428Y-94966592D01*
X62656082Y-94953655D01*
X62673004Y-94942442D01*
X62691192Y-94932955D01*
X62710648Y-94925193D01*
X62731370Y-94919155D01*
X62753360Y-94914843D01*
X62776616Y-94912255D01*
X62801140Y-94911393D01*
X62825366Y-94912393D01*
X62848706Y-94915392D01*
X62871161Y-94920392D01*
X62892731Y-94927391D01*
X62913415Y-94936390D01*
X62933214Y-94947388D01*
X62952128Y-94960387D01*
X62970156Y-94975385D01*
X62986764Y-94992184D01*
X63001663Y-95010830D01*
X63014852Y-95031324D01*
X63026332Y-95053664D01*
X63036101Y-95077852D01*
X63042307Y-95097205D01*
X63047550Y-95117597D01*
X63051832Y-95139028D01*
X63055152Y-95161498D01*
X63410770Y-95105322D01*
X63405982Y-95082290D01*
X63400901Y-95059847D01*
X63395526Y-95037991D01*
X63389857Y-95016723D01*
X63383894Y-94996042D01*
X63377637Y-94975949D01*
X63371086Y-94956444D01*
X63364242Y-94937527D01*
X63357103Y-94919197D01*
X63345845Y-94892805D01*
X63333925Y-94867735D01*
X63321344Y-94843987D01*
X63308102Y-94821561D01*
X63298907Y-94807345D01*
X63284374Y-94786792D01*
X63268802Y-94767080D01*
X63252191Y-94748209D01*
X63234541Y-94730180D01*
X63215852Y-94712992D01*
X63196124Y-94696646D01*
X63175357Y-94681142D01*
X63153552Y-94666478D01*
X63130707Y-94652657D01*
X63106823Y-94639677D01*
X63090323Y-94631491D01*
X63064857Y-94620055D01*
X63038832Y-94609743D01*
X63012249Y-94600557D01*
X62985108Y-94592496D01*
X62957409Y-94585559D01*
X62929152Y-94579747D01*
X62900336Y-94575061D01*
X62880816Y-94572561D01*
X62861047Y-94570561D01*
X62841031Y-94569061D01*
X62820766Y-94568061D01*
X62800254Y-94567562D01*
X62789905Y-94567499D01*
X62754808Y-94568192D01*
X62720593Y-94570270D01*
X62687260Y-94573733D01*
X62654808Y-94578582D01*
X62623237Y-94584815D01*
X62592549Y-94592435D01*
X62562742Y-94601439D01*
X62533816Y-94611829D01*
X62505772Y-94623604D01*
X62478609Y-94636765D01*
X62452329Y-94651311D01*
X62426929Y-94667242D01*
X62402411Y-94684558D01*
X62378775Y-94703260D01*
X62356021Y-94723347D01*
X62334147Y-94744819D01*
X62316993Y-94763103D01*
X62300946Y-94781685D01*
X62286005Y-94800564D01*
X62272171Y-94819741D01*
X62259443Y-94839215D01*
X62247823Y-94858988D01*
X62237309Y-94879057D01*
X62227902Y-94899425D01*
X62219601Y-94920090D01*
X62212408Y-94941053D01*
X62206321Y-94962314D01*
X62201340Y-94983872D01*
X62197467Y-95005728D01*
X62194700Y-95027882D01*
X62193040Y-95050333D01*
X62192487Y-95073082D01*
X62193618Y-95105095D01*
X62197013Y-95136287D01*
X62202670Y-95166659D01*
X62210591Y-95196211D01*
X62220775Y-95224942D01*
X62233222Y-95252852D01*
X62247932Y-95279942D01*
X62264905Y-95306212D01*
X62284141Y-95331660D01*
X62305640Y-95356289D01*
X62329402Y-95380097D01*
X62355427Y-95403084D01*
X62383715Y-95425251D01*
X62414267Y-95446598D01*
X62447081Y-95467124D01*
X62464337Y-95477079D01*
X62482159Y-95486829D01*
X62460814Y-95491960D01*
X62440011Y-95497828D01*
X62419751Y-95504432D01*
X62400032Y-95511772D01*
X62380855Y-95519850D01*
X62362220Y-95528663D01*
X62344127Y-95538214D01*
X62326576Y-95548500D01*
X62309567Y-95559524D01*
X62293099Y-95571284D01*
X62277174Y-95583780D01*
X62261790Y-95597013D01*
X62246949Y-95610983D01*
X62232649Y-95625689D01*
X62218892Y-95641131D01*
X62205676Y-95657311D01*
X62193076Y-95674013D01*
X62181290Y-95691146D01*
X62170316Y-95708710D01*
X62160155Y-95726706D01*
X62150807Y-95745133D01*
X62142272Y-95763991D01*
X62134550Y-95783281D01*
X62127640Y-95803001D01*
X62121544Y-95823153D01*
X62116260Y-95843737D01*
X62111789Y-95864751D01*
X62108131Y-95886197D01*
X62105286Y-95908074D01*
X62103254Y-95930382D01*
X62102035Y-95953121D01*
X62101628Y-95976292D01*
X62102386Y-96009929D01*
X62104658Y-96042940D01*
X62108446Y-96075325D01*
X62113749Y-96107084D01*
X62120567Y-96138217D01*
X62128899Y-96168725D01*
X62138747Y-96198606D01*
X62150110Y-96227862D01*
X62162989Y-96256492D01*
X62177382Y-96284496D01*
X62193290Y-96311874D01*
X62210713Y-96338626D01*
X62229652Y-96364752D01*
X62250105Y-96390253D01*
X62272074Y-96415127D01*
X62295557Y-96439376D01*
X62320109Y-96462564D01*
X62345406Y-96484256D01*
X62371446Y-96504452D01*
X62398231Y-96523151D01*
X62425759Y-96540355D01*
X62454033Y-96556063D01*
X62483050Y-96570275D01*
X62512811Y-96582991D01*
X62543317Y-96594211D01*
X62574566Y-96603935D01*
X62606560Y-96612163D01*
X62639298Y-96618895D01*
X62672781Y-96624131D01*
X62707007Y-96627871D01*
X62741978Y-96630115D01*
X62777692Y-96630863D01*
X62811463Y-96630206D01*
X62844508Y-96628237D01*
X62876828Y-96624955D01*
X62908423Y-96620360D01*
X62939293Y-96614453D01*
X62969438Y-96607232D01*
X62998858Y-96598699D01*
X63027553Y-96588853D01*
X63055523Y-96577694D01*
X63082767Y-96565222D01*
X63109286Y-96551438D01*
X63135081Y-96536341D01*
X63160150Y-96519931D01*
X63184494Y-96502208D01*
X63208113Y-96483172D01*
X63231007Y-96462824D01*
X63252888Y-96441355D01*
X63273589Y-96419081D01*
X63293112Y-96396002D01*
X63311455Y-96372118D01*
X63328618Y-96347428D01*
X63344603Y-96321934D01*
X63359408Y-96295634D01*
X63373034Y-96268528D01*
X63385481Y-96240618D01*
X63396749Y-96211902D01*
X63406837Y-96182381D01*
X63415746Y-96152055D01*
X63423476Y-96120924D01*
X63430027Y-96088987D01*
X63435398Y-96056245D01*
X63439591Y-96022698D01*
G37*
G36*
X71604993Y-147653600D02*
G01*
X71604993Y-145621499D01*
X70224533Y-145621499D01*
X70224533Y-145965393D01*
X71198573Y-145965393D01*
X71198573Y-146434339D01*
X70357889Y-146434339D01*
X70357889Y-146778233D01*
X71198573Y-146778233D01*
X71198573Y-147653600D01*
X71604993Y-147653600D01*
G37*
G36*
X69996898Y-147076698D02*
G01*
X69623207Y-147028338D01*
X69619290Y-147056196D01*
X69614317Y-147082800D01*
X69608287Y-147108151D01*
X69601202Y-147132248D01*
X69593060Y-147155091D01*
X69583863Y-147176681D01*
X69573609Y-147197017D01*
X69562299Y-147216100D01*
X69549932Y-147233928D01*
X69536510Y-147250503D01*
X69526975Y-147260857D01*
X69512028Y-147275174D01*
X69496498Y-147288082D01*
X69480384Y-147299583D01*
X69457990Y-147312726D01*
X69434558Y-147323366D01*
X69410088Y-147331502D01*
X69391054Y-147335962D01*
X69371436Y-147339013D01*
X69351235Y-147340656D01*
X69337442Y-147340969D01*
X69315425Y-147340166D01*
X69294068Y-147337757D01*
X69273373Y-147333743D01*
X69253339Y-147328123D01*
X69233966Y-147320897D01*
X69215254Y-147312066D01*
X69197204Y-147301629D01*
X69179814Y-147289586D01*
X69163086Y-147275938D01*
X69147019Y-147260683D01*
X69136675Y-147249622D01*
X69122009Y-147231932D01*
X69108785Y-147213117D01*
X69097004Y-147193177D01*
X69086666Y-147172113D01*
X69077770Y-147149924D01*
X69070317Y-147126609D01*
X69064306Y-147102170D01*
X69059738Y-147076606D01*
X69056613Y-147049918D01*
X69054930Y-147022104D01*
X69054609Y-147002937D01*
X69055300Y-146975992D01*
X69057374Y-146950111D01*
X69060830Y-146925296D01*
X69065669Y-146901545D01*
X69071890Y-146878859D01*
X69079493Y-146857238D01*
X69088479Y-146836682D01*
X69098848Y-146817190D01*
X69110599Y-146798763D01*
X69123732Y-146781401D01*
X69133255Y-146770417D01*
X69148211Y-146755053D01*
X69163767Y-146741200D01*
X69179924Y-146728858D01*
X69196682Y-146718027D01*
X69214042Y-146708708D01*
X69232002Y-146700900D01*
X69250564Y-146694603D01*
X69269726Y-146689817D01*
X69289490Y-146686543D01*
X69309854Y-146684780D01*
X69323765Y-146684444D01*
X69347672Y-146685148D01*
X69367810Y-146686724D01*
X69388849Y-146689200D01*
X69410789Y-146692578D01*
X69433630Y-146696856D01*
X69457371Y-146702035D01*
X69482013Y-146708114D01*
X69501085Y-146713265D01*
X69458587Y-146403076D01*
X69429843Y-146403199D01*
X69402413Y-146402103D01*
X69376297Y-146399787D01*
X69351494Y-146396253D01*
X69328005Y-146391498D01*
X69305830Y-146385525D01*
X69284969Y-146378332D01*
X69265421Y-146369920D01*
X69247188Y-146360289D01*
X69230268Y-146349438D01*
X69219717Y-146341527D01*
X69200369Y-146324491D01*
X69183600Y-146306112D01*
X69169411Y-146286389D01*
X69157802Y-146265323D01*
X69148773Y-146242914D01*
X69142323Y-146219161D01*
X69138453Y-146194065D01*
X69137244Y-146174362D01*
X69137163Y-146167626D01*
X69138110Y-146145133D01*
X69140949Y-146123815D01*
X69145681Y-146103673D01*
X69152306Y-146084706D01*
X69160824Y-146066914D01*
X69171235Y-146050298D01*
X69183539Y-146034857D01*
X69197736Y-146020592D01*
X69213390Y-146007655D01*
X69230311Y-145996442D01*
X69248500Y-145986955D01*
X69267955Y-145979193D01*
X69288678Y-145973155D01*
X69310667Y-145968843D01*
X69333924Y-145966255D01*
X69358447Y-145965393D01*
X69382673Y-145966393D01*
X69406014Y-145969392D01*
X69428469Y-145974392D01*
X69450038Y-145981391D01*
X69470723Y-145990390D01*
X69490522Y-146001388D01*
X69509435Y-146014387D01*
X69527463Y-146029385D01*
X69544072Y-146046184D01*
X69558971Y-146064830D01*
X69572160Y-146085324D01*
X69583639Y-146107664D01*
X69593409Y-146131852D01*
X69599614Y-146151205D01*
X69604858Y-146171597D01*
X69609140Y-146193028D01*
X69612460Y-146215498D01*
X69968078Y-146159322D01*
X69963290Y-146136290D01*
X69958209Y-146113847D01*
X69952833Y-146091991D01*
X69947164Y-146070723D01*
X69941201Y-146050042D01*
X69934944Y-146029949D01*
X69928394Y-146010444D01*
X69921549Y-145991527D01*
X69914411Y-145973197D01*
X69903152Y-145946805D01*
X69891233Y-145921735D01*
X69878652Y-145897987D01*
X69865410Y-145875561D01*
X69856214Y-145861345D01*
X69841681Y-145840792D01*
X69826109Y-145821080D01*
X69809499Y-145802209D01*
X69791849Y-145784180D01*
X69773160Y-145766992D01*
X69753432Y-145750646D01*
X69732665Y-145735142D01*
X69710859Y-145720478D01*
X69688014Y-145706657D01*
X69664131Y-145693677D01*
X69647631Y-145685491D01*
X69622164Y-145674055D01*
X69596140Y-145663743D01*
X69569557Y-145654557D01*
X69542416Y-145646496D01*
X69514717Y-145639559D01*
X69486459Y-145633747D01*
X69457644Y-145629061D01*
X69438123Y-145626561D01*
X69418355Y-145624561D01*
X69398339Y-145623061D01*
X69378074Y-145622061D01*
X69357562Y-145621562D01*
X69347212Y-145621499D01*
X69312116Y-145622192D01*
X69277901Y-145624270D01*
X69244567Y-145627733D01*
X69212115Y-145632582D01*
X69180545Y-145638815D01*
X69149856Y-145646435D01*
X69120049Y-145655439D01*
X69091124Y-145665829D01*
X69063080Y-145677604D01*
X69035917Y-145690765D01*
X69009636Y-145705311D01*
X68984237Y-145721242D01*
X68959719Y-145738558D01*
X68936083Y-145757260D01*
X68913328Y-145777347D01*
X68891455Y-145798819D01*
X68874301Y-145817103D01*
X68858253Y-145835685D01*
X68843312Y-145854564D01*
X68829478Y-145873741D01*
X68816751Y-145893215D01*
X68805130Y-145912988D01*
X68794617Y-145933057D01*
X68785209Y-145953425D01*
X68776909Y-145974090D01*
X68769715Y-145995053D01*
X68763628Y-146016314D01*
X68758648Y-146037872D01*
X68754774Y-146059728D01*
X68752008Y-146081882D01*
X68750348Y-146104333D01*
X68749794Y-146127082D01*
X68750926Y-146159095D01*
X68754320Y-146190287D01*
X68759978Y-146220659D01*
X68767899Y-146250211D01*
X68778082Y-146278942D01*
X68790529Y-146306852D01*
X68805239Y-146333942D01*
X68822212Y-146360212D01*
X68841448Y-146385660D01*
X68862947Y-146410289D01*
X68886709Y-146434097D01*
X68912735Y-146457084D01*
X68941023Y-146479251D01*
X68971574Y-146500598D01*
X69004389Y-146521124D01*
X69021645Y-146531079D01*
X69039466Y-146540829D01*
X69018122Y-146545960D01*
X68997319Y-146551828D01*
X68977058Y-146558432D01*
X68957340Y-146565772D01*
X68938163Y-146573850D01*
X68919528Y-146582663D01*
X68901435Y-146592214D01*
X68883884Y-146602500D01*
X68866874Y-146613524D01*
X68850407Y-146625284D01*
X68834482Y-146637780D01*
X68819098Y-146651013D01*
X68804257Y-146664983D01*
X68789957Y-146679689D01*
X68776199Y-146695131D01*
X68762983Y-146711311D01*
X68750384Y-146728013D01*
X68738597Y-146745146D01*
X68727623Y-146762710D01*
X68717463Y-146780706D01*
X68708115Y-146799133D01*
X68699579Y-146817991D01*
X68691857Y-146837281D01*
X68684948Y-146857001D01*
X68678851Y-146877153D01*
X68673568Y-146897737D01*
X68669097Y-146918751D01*
X68665439Y-146940197D01*
X68662594Y-146962074D01*
X68660562Y-146984382D01*
X68659342Y-147007121D01*
X68658936Y-147030292D01*
X68659693Y-147063929D01*
X68661966Y-147096940D01*
X68665754Y-147129325D01*
X68671056Y-147161084D01*
X68677874Y-147192217D01*
X68686207Y-147222725D01*
X68696055Y-147252606D01*
X68707418Y-147281862D01*
X68720296Y-147310492D01*
X68734689Y-147338496D01*
X68750598Y-147365874D01*
X68768021Y-147392626D01*
X68786959Y-147418752D01*
X68807413Y-147444253D01*
X68829381Y-147469127D01*
X68852865Y-147493376D01*
X68877417Y-147516564D01*
X68902713Y-147538256D01*
X68928754Y-147558452D01*
X68955538Y-147577151D01*
X68983067Y-147594355D01*
X69011340Y-147610063D01*
X69040357Y-147624275D01*
X69070119Y-147636991D01*
X69100624Y-147648211D01*
X69131874Y-147657935D01*
X69163868Y-147666163D01*
X69196606Y-147672895D01*
X69230088Y-147678131D01*
X69264315Y-147681871D01*
X69299285Y-147684115D01*
X69335000Y-147684863D01*
X69368770Y-147684206D01*
X69401816Y-147682237D01*
X69434136Y-147678955D01*
X69465731Y-147674360D01*
X69496601Y-147668453D01*
X69526746Y-147661232D01*
X69556166Y-147652699D01*
X69584860Y-147642853D01*
X69612830Y-147631694D01*
X69640075Y-147619222D01*
X69666594Y-147605438D01*
X69692388Y-147590341D01*
X69717458Y-147573931D01*
X69741802Y-147556208D01*
X69765421Y-147537172D01*
X69788315Y-147516824D01*
X69810196Y-147495355D01*
X69830897Y-147473081D01*
X69850419Y-147450002D01*
X69868762Y-147426118D01*
X69885926Y-147401428D01*
X69901911Y-147375934D01*
X69916716Y-147349634D01*
X69930342Y-147322528D01*
X69942789Y-147294618D01*
X69954056Y-147265902D01*
X69964145Y-147236381D01*
X69973054Y-147206055D01*
X69980784Y-147174924D01*
X69987335Y-147142987D01*
X69992706Y-147110245D01*
X69996898Y-147076698D01*
G37*
G36*
X69093324Y-59769600D02*
G01*
X68686415Y-59769600D01*
X68686415Y-58988022D01*
X68421168Y-58988022D01*
X68404045Y-58987994D01*
X68370565Y-58987769D01*
X68338104Y-58987319D01*
X68306661Y-58986643D01*
X68276238Y-58985743D01*
X68246833Y-58984617D01*
X68218448Y-58983266D01*
X68191081Y-58981690D01*
X68164733Y-58979888D01*
X68139404Y-58977862D01*
X68115095Y-58975610D01*
X68091804Y-58973134D01*
X68069532Y-58970432D01*
X68048279Y-58967505D01*
X68028045Y-58964352D01*
X67999605Y-58959202D01*
X67986186Y-58956082D01*
X67966117Y-58950694D01*
X67946115Y-58944456D01*
X67926183Y-58937367D01*
X67906319Y-58929429D01*
X67886524Y-58920640D01*
X67866797Y-58911002D01*
X67847140Y-58900513D01*
X67827551Y-58889175D01*
X67808030Y-58876986D01*
X67788579Y-58863947D01*
X67775775Y-58854759D01*
X67757099Y-58840183D01*
X67739058Y-58824654D01*
X67721653Y-58808172D01*
X67704884Y-58790737D01*
X67688749Y-58772349D01*
X67673250Y-58753007D01*
X67658387Y-58732713D01*
X67644159Y-58711465D01*
X67630566Y-58689264D01*
X67617609Y-58666110D01*
X67609446Y-58650128D01*
X67598189Y-58625295D01*
X67588116Y-58599432D01*
X67579229Y-58572539D01*
X67571527Y-58544615D01*
X67567050Y-58525426D01*
X67563101Y-58505780D01*
X67559677Y-58485676D01*
X67556781Y-58465114D01*
X67554411Y-58444094D01*
X67552568Y-58422615D01*
X67551251Y-58400679D01*
X67550461Y-58378285D01*
X67550265Y-58361295D01*
X67969318Y-58361295D01*
X67970036Y-58382941D01*
X67972188Y-58403916D01*
X67975776Y-58424218D01*
X67980798Y-58443849D01*
X67987255Y-58462809D01*
X67995147Y-58481096D01*
X68004474Y-58498712D01*
X68015236Y-58515657D01*
X68027265Y-58531716D01*
X68040393Y-58546676D01*
X68054620Y-58560536D01*
X68069946Y-58573298D01*
X68086372Y-58584961D01*
X68103896Y-58595524D01*
X68122520Y-58604989D01*
X68142242Y-58613354D01*
X68147466Y-58615247D01*
X68171470Y-58622220D01*
X68192740Y-58626818D01*
X68216808Y-58630875D01*
X68243676Y-58634391D01*
X68263143Y-58636435D01*
X68283854Y-58638238D01*
X68305809Y-58639801D01*
X68329008Y-58641123D01*
X68353451Y-58642205D01*
X68379139Y-58643047D01*
X68406070Y-58643648D01*
X68434246Y-58644008D01*
X68463666Y-58644128D01*
X68686415Y-58644128D01*
X68686415Y-58081393D01*
X68490044Y-58081393D01*
X68463141Y-58081446D01*
X68437387Y-58081607D01*
X68412781Y-58081874D01*
X68389325Y-58082248D01*
X68367016Y-58082729D01*
X68345857Y-58083316D01*
X68316272Y-58084398D01*
X68289271Y-58085721D01*
X68264855Y-58087283D01*
X68243023Y-58089087D01*
X68217935Y-58091865D01*
X68197441Y-58095071D01*
X68173192Y-58100291D01*
X68150028Y-58107161D01*
X68127947Y-58115679D01*
X68106949Y-58125845D01*
X68087036Y-58137660D01*
X68068206Y-58151124D01*
X68050460Y-58166237D01*
X68033799Y-58182998D01*
X68029831Y-58187431D01*
X68015223Y-58205898D01*
X68002629Y-58225541D01*
X67992050Y-58246358D01*
X67983486Y-58268352D01*
X67976938Y-58291520D01*
X67972404Y-58315865D01*
X67969885Y-58341384D01*
X67969318Y-58361295D01*
X67550265Y-58361295D01*
X67550198Y-58355433D01*
X67550654Y-58325798D01*
X67552022Y-58296853D01*
X67554302Y-58268599D01*
X67557494Y-58241036D01*
X67561599Y-58214164D01*
X67566615Y-58187982D01*
X67572544Y-58162491D01*
X67579385Y-58137691D01*
X67587138Y-58113581D01*
X67595802Y-58090163D01*
X67605379Y-58067435D01*
X67615868Y-58045398D01*
X67627270Y-58024051D01*
X67639583Y-58003396D01*
X67652808Y-57983431D01*
X67666946Y-57964156D01*
X67681761Y-57945644D01*
X67697018Y-57927963D01*
X67712718Y-57911114D01*
X67728861Y-57895097D01*
X67745447Y-57879912D01*
X67762475Y-57865559D01*
X67779946Y-57852037D01*
X67797860Y-57839348D01*
X67816216Y-57827491D01*
X67835015Y-57816466D01*
X67854257Y-57806272D01*
X67873942Y-57796911D01*
X67894069Y-57788382D01*
X67914639Y-57780684D01*
X67935651Y-57773819D01*
X67957106Y-57767785D01*
X67972162Y-57764118D01*
X67998537Y-57759060D01*
X68018649Y-57755984D01*
X68040783Y-57753145D01*
X68064940Y-57750542D01*
X68091120Y-57748176D01*
X68119323Y-57746047D01*
X68149548Y-57744154D01*
X68181795Y-57742497D01*
X68216066Y-57741078D01*
X68252359Y-57739895D01*
X68290674Y-57738948D01*
X68310591Y-57738564D01*
X68331012Y-57738238D01*
X68351940Y-57737972D01*
X68373373Y-57737765D01*
X68395312Y-57737617D01*
X68417757Y-57737529D01*
X68440707Y-57737499D01*
X69093324Y-57737499D01*
X69093324Y-59769600D01*
G37*
G36*
X66366313Y-57706549D02*
G01*
X66396356Y-57707488D01*
X66425954Y-57709052D01*
X66455104Y-57711243D01*
X66483809Y-57714059D01*
X66512066Y-57717502D01*
X66539878Y-57721570D01*
X66567242Y-57726264D01*
X66594161Y-57731584D01*
X66620632Y-57737530D01*
X66646658Y-57744101D01*
X66672236Y-57751299D01*
X66697368Y-57759122D01*
X66722054Y-57767571D01*
X66746293Y-57776647D01*
X66770086Y-57786348D01*
X66778888Y-57790134D01*
X66805036Y-57802239D01*
X66830797Y-57815459D01*
X66856172Y-57829796D01*
X66872874Y-57839974D01*
X66889404Y-57850648D01*
X66905763Y-57861819D01*
X66921950Y-57873485D01*
X66937965Y-57885648D01*
X66953808Y-57898306D01*
X66969480Y-57911461D01*
X66984980Y-57925112D01*
X67000308Y-57939259D01*
X67015464Y-57953902D01*
X67030449Y-57969041D01*
X67045092Y-57984493D01*
X67059346Y-58000197D01*
X67073210Y-58016153D01*
X67086686Y-58032361D01*
X67099772Y-58048821D01*
X67112469Y-58065532D01*
X67124776Y-58082496D01*
X67136695Y-58099711D01*
X67148224Y-58117178D01*
X67159363Y-58134897D01*
X67170114Y-58152868D01*
X67180475Y-58171091D01*
X67190447Y-58189566D01*
X67200030Y-58208292D01*
X67209223Y-58227271D01*
X67218027Y-58246501D01*
X67229148Y-58273145D01*
X67239551Y-58300563D01*
X67249237Y-58328756D01*
X67258205Y-58357723D01*
X67266456Y-58387465D01*
X67273990Y-58417982D01*
X67280805Y-58449274D01*
X67286904Y-58481341D01*
X67292285Y-58514182D01*
X67296948Y-58547798D01*
X67300894Y-58582188D01*
X67304123Y-58617353D01*
X67306634Y-58653293D01*
X67308428Y-58690008D01*
X67309504Y-58727497D01*
X67309863Y-58765761D01*
X67309604Y-58795784D01*
X67308827Y-58825401D01*
X67307531Y-58854612D01*
X67305718Y-58883418D01*
X67303387Y-58911818D01*
X67300538Y-58939813D01*
X67297170Y-58967402D01*
X67293285Y-58994586D01*
X67288881Y-59021365D01*
X67283960Y-59047738D01*
X67278520Y-59073705D01*
X67272562Y-59099267D01*
X67266086Y-59124424D01*
X67259093Y-59149175D01*
X67251581Y-59173521D01*
X67243551Y-59197461D01*
X67235003Y-59220995D01*
X67225937Y-59244124D01*
X67216353Y-59266848D01*
X67206250Y-59289166D01*
X67195630Y-59311079D01*
X67184492Y-59332586D01*
X67172835Y-59353688D01*
X67160661Y-59374384D01*
X67147968Y-59394675D01*
X67134758Y-59414560D01*
X67121029Y-59434040D01*
X67106782Y-59453114D01*
X67092018Y-59471783D01*
X67076735Y-59490046D01*
X67060934Y-59507904D01*
X67044615Y-59525357D01*
X67027857Y-59542307D01*
X67010740Y-59558719D01*
X66993262Y-59574593D01*
X66975426Y-59589928D01*
X66957229Y-59604726D01*
X66938673Y-59618986D01*
X66919757Y-59632707D01*
X66900481Y-59645890D01*
X66880846Y-59658536D01*
X66860851Y-59670643D01*
X66840496Y-59682212D01*
X66819782Y-59693243D01*
X66798708Y-59703736D01*
X66777274Y-59713691D01*
X66755481Y-59723107D01*
X66733327Y-59731986D01*
X66710815Y-59740327D01*
X66687942Y-59748129D01*
X66664710Y-59755393D01*
X66641118Y-59762120D01*
X66617167Y-59768308D01*
X66592855Y-59773958D01*
X66568184Y-59779070D01*
X66543154Y-59783643D01*
X66517764Y-59787679D01*
X66492014Y-59791177D01*
X66465904Y-59794136D01*
X66439435Y-59796558D01*
X66412606Y-59798441D01*
X66385417Y-59799786D01*
X66357869Y-59800594D01*
X66329960Y-59800863D01*
X66302413Y-59800592D01*
X66275214Y-59799781D01*
X66248363Y-59798428D01*
X66221860Y-59796535D01*
X66195706Y-59794101D01*
X66169899Y-59791125D01*
X66144441Y-59787609D01*
X66119331Y-59783552D01*
X66094570Y-59778954D01*
X66070157Y-59773815D01*
X66046092Y-59768135D01*
X66022375Y-59761913D01*
X65999006Y-59755151D01*
X65975986Y-59747849D01*
X65953314Y-59740005D01*
X65930990Y-59731620D01*
X65909014Y-59722694D01*
X65887387Y-59713227D01*
X65866107Y-59703219D01*
X65845177Y-59692671D01*
X65824594Y-59681581D01*
X65804359Y-59669950D01*
X65784473Y-59657779D01*
X65764935Y-59645066D01*
X65745745Y-59631813D01*
X65726904Y-59618018D01*
X65708411Y-59603683D01*
X65690266Y-59588806D01*
X65672469Y-59573389D01*
X65655020Y-59557431D01*
X65637920Y-59540931D01*
X65621168Y-59523891D01*
X65604849Y-59506372D01*
X65589048Y-59488436D01*
X65573765Y-59470083D01*
X65559000Y-59451313D01*
X65544754Y-59432126D01*
X65531025Y-59412522D01*
X65517814Y-59392501D01*
X65505122Y-59372064D01*
X65492947Y-59351209D01*
X65481291Y-59329938D01*
X65470153Y-59308249D01*
X65459532Y-59286144D01*
X65449430Y-59263621D01*
X65439846Y-59240682D01*
X65430780Y-59217326D01*
X65422232Y-59193553D01*
X65414202Y-59169363D01*
X65406690Y-59144756D01*
X65399696Y-59119732D01*
X65393220Y-59094291D01*
X65387263Y-59068433D01*
X65381823Y-59042158D01*
X65376901Y-59015467D01*
X65372498Y-58988358D01*
X65368612Y-58960833D01*
X65365245Y-58932890D01*
X65362396Y-58904531D01*
X65360064Y-58875755D01*
X65358251Y-58846561D01*
X65356956Y-58816951D01*
X65356179Y-58786924D01*
X65355920Y-58756480D01*
X65356003Y-58746710D01*
X65776506Y-58746710D01*
X65776658Y-58768733D01*
X65777115Y-58790409D01*
X65777876Y-58811739D01*
X65778941Y-58832722D01*
X65780310Y-58853359D01*
X65781984Y-58873650D01*
X65783963Y-58893594D01*
X65786245Y-58913192D01*
X65791724Y-58951350D01*
X65798419Y-58988122D01*
X65806332Y-59023508D01*
X65815463Y-59057509D01*
X65825811Y-59090125D01*
X65837376Y-59121356D01*
X65850159Y-59151201D01*
X65864159Y-59179661D01*
X65879376Y-59206736D01*
X65895811Y-59232426D01*
X65913463Y-59256730D01*
X65932333Y-59279648D01*
X65952153Y-59301121D01*
X65972656Y-59321208D01*
X65993842Y-59339910D01*
X66015711Y-59357226D01*
X66038264Y-59373157D01*
X66061499Y-59387703D01*
X66085418Y-59400863D01*
X66110020Y-59412639D01*
X66135305Y-59423028D01*
X66161273Y-59432033D01*
X66187924Y-59439652D01*
X66215258Y-59445886D01*
X66243275Y-59450735D01*
X66271976Y-59454198D01*
X66301359Y-59456276D01*
X66331426Y-59456969D01*
X66361502Y-59456270D01*
X66390914Y-59454175D01*
X66419662Y-59450683D01*
X66447747Y-59445795D01*
X66475167Y-59439509D01*
X66501923Y-59431827D01*
X66528015Y-59422748D01*
X66553443Y-59412272D01*
X66578207Y-59400400D01*
X66602306Y-59387130D01*
X66625742Y-59372464D01*
X66648514Y-59356402D01*
X66670622Y-59338942D01*
X66692066Y-59320086D01*
X66712845Y-59299833D01*
X66732961Y-59278183D01*
X66742668Y-59266815D01*
X66761158Y-59243096D01*
X66778416Y-59218069D01*
X66794440Y-59191733D01*
X66809232Y-59164088D01*
X66822791Y-59135133D01*
X66835118Y-59104870D01*
X66846212Y-59073298D01*
X66856073Y-59040417D01*
X66864702Y-59006227D01*
X66872098Y-58970727D01*
X66878261Y-58933919D01*
X66883192Y-58895802D01*
X66885195Y-58876253D01*
X66886890Y-58856376D01*
X66888277Y-58836172D01*
X66889355Y-58815641D01*
X66890126Y-58794782D01*
X66890588Y-58773597D01*
X66890742Y-58752084D01*
X66890592Y-58730245D01*
X66890141Y-58708752D01*
X66889390Y-58687605D01*
X66888338Y-58666805D01*
X66886985Y-58646351D01*
X66885332Y-58626243D01*
X66883379Y-58606482D01*
X66881125Y-58587067D01*
X66875715Y-58549276D01*
X66869104Y-58512871D01*
X66861290Y-58477851D01*
X66852274Y-58444216D01*
X66842056Y-58411966D01*
X66830635Y-58381102D01*
X66818013Y-58351623D01*
X66804188Y-58323529D01*
X66789162Y-58296821D01*
X66772933Y-58271498D01*
X66755502Y-58247560D01*
X66736869Y-58225008D01*
X66717253Y-58203831D01*
X66696874Y-58184021D01*
X66675732Y-58165577D01*
X66653826Y-58148499D01*
X66631158Y-58132787D01*
X66607726Y-58118442D01*
X66583530Y-58105462D01*
X66558572Y-58093849D01*
X66532850Y-58083603D01*
X66506365Y-58074722D01*
X66479116Y-58067208D01*
X66451105Y-58061060D01*
X66422330Y-58056278D01*
X66392792Y-58052862D01*
X66362491Y-58050813D01*
X66331426Y-58050130D01*
X66300428Y-58050805D01*
X66270205Y-58052832D01*
X66240756Y-58056209D01*
X66212083Y-58060938D01*
X66184184Y-58067017D01*
X66157059Y-58074447D01*
X66130710Y-58083229D01*
X66105135Y-58093361D01*
X66080335Y-58104844D01*
X66056309Y-58117678D01*
X66033058Y-58131863D01*
X66010582Y-58147400D01*
X65988881Y-58164287D01*
X65967954Y-58182525D01*
X65947802Y-58202114D01*
X65928425Y-58223054D01*
X65919079Y-58234006D01*
X65901276Y-58256957D01*
X65884659Y-58281305D01*
X65869230Y-58307049D01*
X65854988Y-58334191D01*
X65841932Y-58362729D01*
X65830064Y-58392664D01*
X65819382Y-58423996D01*
X65809887Y-58456725D01*
X65801579Y-58490850D01*
X65794458Y-58526372D01*
X65788523Y-58563291D01*
X65783776Y-58601606D01*
X65781847Y-58621288D01*
X65780215Y-58641319D01*
X65778880Y-58661699D01*
X65777841Y-58682428D01*
X65777100Y-58703506D01*
X65776654Y-58724934D01*
X65776506Y-58746710D01*
X65356003Y-58746710D01*
X65356181Y-58725765D01*
X65356964Y-58695475D01*
X65358268Y-58665609D01*
X65360095Y-58636168D01*
X65362443Y-58607151D01*
X65365314Y-58578559D01*
X65368706Y-58550391D01*
X65372620Y-58522648D01*
X65377056Y-58495330D01*
X65382014Y-58468436D01*
X65387494Y-58441966D01*
X65393495Y-58415922D01*
X65400019Y-58390301D01*
X65407064Y-58365106D01*
X65414631Y-58340335D01*
X65422720Y-58315988D01*
X65431331Y-58292066D01*
X65440464Y-58268569D01*
X65450119Y-58245496D01*
X65460296Y-58222848D01*
X65470994Y-58200624D01*
X65482214Y-58178825D01*
X65493957Y-58157450D01*
X65506221Y-58136500D01*
X65519007Y-58115975D01*
X65532315Y-58095874D01*
X65546145Y-58076198D01*
X65560496Y-58056946D01*
X65575370Y-58038119D01*
X65590765Y-58019716D01*
X65606682Y-58001738D01*
X65623122Y-57984184D01*
X65639996Y-57967084D01*
X65657218Y-57950526D01*
X65674789Y-57934512D01*
X65692708Y-57919040D01*
X65710975Y-57904111D01*
X65729591Y-57889725D01*
X65748554Y-57875882D01*
X65767866Y-57862582D01*
X65787526Y-57849824D01*
X65807535Y-57837610D01*
X65827891Y-57825938D01*
X65848596Y-57814810D01*
X65869649Y-57804224D01*
X65891050Y-57794181D01*
X65912800Y-57784680D01*
X65934898Y-57775723D01*
X65957344Y-57767309D01*
X65980138Y-57759437D01*
X66003280Y-57752108D01*
X66026771Y-57745322D01*
X66050610Y-57739079D01*
X66074797Y-57733379D01*
X66099333Y-57728222D01*
X66124216Y-57723608D01*
X66149448Y-57719536D01*
X66175028Y-57716008D01*
X66200957Y-57713022D01*
X66227233Y-57710579D01*
X66253858Y-57708679D01*
X66280831Y-57707322D01*
X66308153Y-57706507D01*
X66335822Y-57706236D01*
X66366313Y-57706549D01*
G37*
G36*
X64597302Y-59769600D02*
G01*
X64597302Y-58081393D01*
X65194720Y-58081393D01*
X65194720Y-57737499D01*
X63594441Y-57737499D01*
X63594441Y-58081393D01*
X64190393Y-58081393D01*
X64190393Y-59769600D01*
X64597302Y-59769600D01*
G37*
G36*
X62438195Y-59769600D02*
G01*
X62824099Y-59769600D01*
X62824099Y-58299258D01*
X62850834Y-58325327D01*
X62878160Y-58350533D01*
X62906078Y-58374877D01*
X62934588Y-58398359D01*
X62963689Y-58420978D01*
X62993382Y-58442735D01*
X63023666Y-58463629D01*
X63054542Y-58483661D01*
X63086009Y-58502830D01*
X63118068Y-58521137D01*
X63150718Y-58538581D01*
X63183960Y-58555163D01*
X63217793Y-58570882D01*
X63252218Y-58585739D01*
X63287235Y-58599734D01*
X63322842Y-58612865D01*
X63322842Y-58237708D01*
X63303872Y-58231324D01*
X63284695Y-58224260D01*
X63265312Y-58216516D01*
X63245723Y-58208094D01*
X63225928Y-58198992D01*
X63205926Y-58189211D01*
X63185719Y-58178750D01*
X63165306Y-58167611D01*
X63144686Y-58155792D01*
X63123861Y-58143293D01*
X63102829Y-58130116D01*
X63081592Y-58116259D01*
X63060148Y-58101722D01*
X63038498Y-58086507D01*
X63016642Y-58070612D01*
X62994580Y-58054038D01*
X62972850Y-58036887D01*
X62951990Y-58019386D01*
X62932001Y-58001533D01*
X62912881Y-57983329D01*
X62894631Y-57964775D01*
X62877252Y-57945869D01*
X62860743Y-57926612D01*
X62845103Y-57907004D01*
X62830334Y-57887044D01*
X62816435Y-57866734D01*
X62803407Y-57846073D01*
X62791248Y-57825060D01*
X62779959Y-57803696D01*
X62769541Y-57781982D01*
X62759992Y-57759916D01*
X62751314Y-57737499D01*
X62438195Y-57737499D01*
X62438195Y-59769600D01*
G37*
G36*
X62206993Y-147653600D02*
G01*
X62206993Y-145621499D01*
X60826533Y-145621499D01*
X60826533Y-145965393D01*
X61800573Y-145965393D01*
X61800573Y-146434339D01*
X60959889Y-146434339D01*
X60959889Y-146778233D01*
X61800573Y-146778233D01*
X61800573Y-147653600D01*
X62206993Y-147653600D01*
G37*
G36*
X60652632Y-146904751D02*
G01*
X60652632Y-147247179D01*
X59828556Y-147247179D01*
X59828556Y-147653600D01*
X59454865Y-147653600D01*
X59454865Y-147247179D01*
X59204760Y-147247179D01*
X59204760Y-146903285D01*
X59454865Y-146903285D01*
X59454865Y-146240899D01*
X59828556Y-146240899D01*
X59828556Y-146903285D01*
X60291152Y-146903285D01*
X59828556Y-146240899D01*
X59454865Y-146240899D01*
X59454865Y-145652762D01*
X59778731Y-145652762D01*
X60652632Y-146904751D01*
G37*
D12*
G36*
X74806807Y-154019500D02*
G01*
X74806807Y-152698634D01*
X74542634Y-152698634D01*
X74542634Y-153226980D01*
X74024448Y-153226980D01*
X74024448Y-152698634D01*
X73760275Y-152698634D01*
X73760275Y-154019500D01*
X74024448Y-154019500D01*
X74024448Y-153450511D01*
X74542634Y-153450511D01*
X74542634Y-154019500D01*
X74806807Y-154019500D01*
G37*
G36*
X73627554Y-154019500D02*
G01*
X73347187Y-154019500D01*
X73239232Y-153714684D01*
X72715648Y-153714684D01*
X72601343Y-154019500D01*
X72313991Y-154019500D01*
X72523679Y-153491153D01*
X72800743Y-153491153D01*
X73157948Y-153491153D01*
X72981092Y-153023770D01*
X72800743Y-153491153D01*
X72523679Y-153491153D01*
X72838210Y-152698634D01*
X73117623Y-152698634D01*
X73627554Y-154019500D01*
G37*
G36*
X71572274Y-153531795D02*
G01*
X71572274Y-153308264D01*
X71002334Y-153308264D01*
X71002334Y-153839151D01*
X71013023Y-153849038D01*
X71024292Y-153858777D01*
X71036142Y-153868367D01*
X71048572Y-153877808D01*
X71061583Y-153887100D01*
X71075174Y-153896244D01*
X71089345Y-153905238D01*
X71104098Y-153914084D01*
X71119430Y-153922781D01*
X71135343Y-153931329D01*
X71151837Y-153939729D01*
X71168910Y-153947979D01*
X71186565Y-153956081D01*
X71204800Y-153964033D01*
X71223615Y-153971837D01*
X71243011Y-153979493D01*
X71262713Y-153986798D01*
X71282447Y-153993632D01*
X71302214Y-153999995D01*
X71322013Y-154005886D01*
X71341844Y-154011306D01*
X71361707Y-154016255D01*
X71381603Y-154020732D01*
X71401530Y-154024739D01*
X71421490Y-154028273D01*
X71441483Y-154031337D01*
X71461507Y-154033929D01*
X71481564Y-154036050D01*
X71501653Y-154037700D01*
X71521775Y-154038878D01*
X71541928Y-154039585D01*
X71562114Y-154039821D01*
X71574902Y-154039736D01*
X71600169Y-154039059D01*
X71625025Y-154037704D01*
X71649469Y-154035673D01*
X71673501Y-154032964D01*
X71697121Y-154029578D01*
X71720329Y-154025515D01*
X71743126Y-154020774D01*
X71765511Y-154015357D01*
X71787484Y-154009262D01*
X71809045Y-154002490D01*
X71830195Y-153995041D01*
X71850932Y-153986914D01*
X71871258Y-153978111D01*
X71891172Y-153968630D01*
X71910675Y-153958472D01*
X71920272Y-153953139D01*
X71939066Y-153942013D01*
X71957267Y-153930307D01*
X71974876Y-153918021D01*
X71991891Y-153905154D01*
X72008314Y-153891707D01*
X72024144Y-153877679D01*
X72039381Y-153863071D01*
X72054025Y-153847882D01*
X72068076Y-153832113D01*
X72081535Y-153815764D01*
X72094400Y-153798834D01*
X72106673Y-153781323D01*
X72118353Y-153763232D01*
X72129440Y-153744561D01*
X72139934Y-153725309D01*
X72149835Y-153705476D01*
X72159140Y-153685204D01*
X72167845Y-153664710D01*
X72175949Y-153643996D01*
X72183452Y-153623061D01*
X72190356Y-153601906D01*
X72196659Y-153580529D01*
X72202362Y-153558932D01*
X72207465Y-153537114D01*
X72211967Y-153515075D01*
X72215869Y-153492815D01*
X72219170Y-153470335D01*
X72221872Y-153447634D01*
X72223973Y-153424712D01*
X72225474Y-153401569D01*
X72226374Y-153378206D01*
X72226674Y-153354622D01*
X72226591Y-153341807D01*
X72226339Y-153329083D01*
X72225335Y-153303903D01*
X72223660Y-153279084D01*
X72221316Y-153254624D01*
X72218302Y-153230524D01*
X72214619Y-153206783D01*
X72210265Y-153183403D01*
X72205242Y-153160381D01*
X72199549Y-153137720D01*
X72193186Y-153115418D01*
X72186154Y-153093476D01*
X72178452Y-153071894D01*
X72170080Y-153050671D01*
X72161038Y-153029808D01*
X72151326Y-153009305D01*
X72140945Y-152989161D01*
X72129919Y-152969449D01*
X72118272Y-152950320D01*
X72106006Y-152931774D01*
X72093119Y-152913811D01*
X72079612Y-152896430D01*
X72065485Y-152879633D01*
X72050738Y-152863419D01*
X72035371Y-152847787D01*
X72019384Y-152832739D01*
X72002776Y-152818273D01*
X71985548Y-152804390D01*
X71967701Y-152791091D01*
X71949233Y-152778374D01*
X71930144Y-152766240D01*
X71910436Y-152754689D01*
X71890108Y-152743721D01*
X71874112Y-152735801D01*
X71857637Y-152728391D01*
X71840683Y-152721493D01*
X71823251Y-152715105D01*
X71805340Y-152709229D01*
X71786950Y-152703863D01*
X71768081Y-152699009D01*
X71748734Y-152694665D01*
X71728908Y-152690833D01*
X71708603Y-152687511D01*
X71687819Y-152684701D01*
X71666557Y-152682401D01*
X71644816Y-152680613D01*
X71622596Y-152679335D01*
X71599897Y-152678569D01*
X71576720Y-152678313D01*
X71561583Y-152678419D01*
X71546656Y-152678735D01*
X71531938Y-152679262D01*
X71517429Y-152680000D01*
X71503128Y-152680949D01*
X71489037Y-152682108D01*
X71475155Y-152683479D01*
X71461481Y-152685060D01*
X71448017Y-152686853D01*
X71434762Y-152688856D01*
X71421715Y-152691070D01*
X71408878Y-152693494D01*
X71396249Y-152696130D01*
X71383830Y-152698977D01*
X71359618Y-152705302D01*
X71336242Y-152712471D01*
X71313703Y-152720483D01*
X71291999Y-152729339D01*
X71271131Y-152739038D01*
X71251099Y-152749581D01*
X71231903Y-152760966D01*
X71213542Y-152773196D01*
X71196018Y-152786269D01*
X71179254Y-152800085D01*
X71163255Y-152814547D01*
X71148019Y-152829654D01*
X71133547Y-152845406D01*
X71119839Y-152861803D01*
X71106896Y-152878844D01*
X71094716Y-152896531D01*
X71083300Y-152914862D01*
X71072649Y-152933839D01*
X71062761Y-152953460D01*
X71053637Y-152973727D01*
X71045278Y-152994638D01*
X71037682Y-153016195D01*
X71030851Y-153038396D01*
X71024783Y-153061242D01*
X71019480Y-153084733D01*
X71282065Y-153125375D01*
X71285709Y-153112606D01*
X71289735Y-153100177D01*
X71294143Y-153088088D01*
X71301471Y-153070592D01*
X71309659Y-153053860D01*
X71318707Y-153037893D01*
X71328613Y-153022690D01*
X71339380Y-153008252D01*
X71351006Y-152994579D01*
X71363491Y-152981670D01*
X71376836Y-152969526D01*
X71386210Y-152961855D01*
X71400833Y-152951130D01*
X71416126Y-152941461D01*
X71432089Y-152932846D01*
X71448721Y-152925286D01*
X71466023Y-152918781D01*
X71483995Y-152913331D01*
X71496348Y-152910283D01*
X71508999Y-152907705D01*
X71521948Y-152905595D01*
X71535195Y-152903954D01*
X71548739Y-152902782D01*
X71562580Y-152902079D01*
X71576720Y-152901844D01*
X71598112Y-152902280D01*
X71618949Y-152903586D01*
X71639231Y-152905762D01*
X71658956Y-152908810D01*
X71678126Y-152912728D01*
X71696741Y-152917517D01*
X71714799Y-152923176D01*
X71732302Y-152929706D01*
X71749250Y-152937107D01*
X71765641Y-152945379D01*
X71781478Y-152954521D01*
X71796758Y-152964534D01*
X71811483Y-152975417D01*
X71825652Y-152987172D01*
X71839265Y-152999797D01*
X71852323Y-153013292D01*
X71864704Y-153027606D01*
X71876286Y-153042767D01*
X71887069Y-153058773D01*
X71897053Y-153075625D01*
X71906239Y-153093322D01*
X71914626Y-153111866D01*
X71922214Y-153131256D01*
X71929003Y-153151491D01*
X71934994Y-153172572D01*
X71940186Y-153194499D01*
X71944579Y-153217273D01*
X71948173Y-153240891D01*
X71950969Y-153265356D01*
X71952966Y-153290667D01*
X71953665Y-153303640D01*
X71954164Y-153316824D01*
X71954463Y-153330219D01*
X71954563Y-153343826D01*
X71954462Y-153358475D01*
X71954159Y-153372894D01*
X71953654Y-153387081D01*
X71952946Y-153401038D01*
X71952036Y-153414765D01*
X71950924Y-153428260D01*
X71949610Y-153441525D01*
X71948094Y-153454560D01*
X71946376Y-153467363D01*
X71944455Y-153479936D01*
X71940007Y-153504390D01*
X71934751Y-153527921D01*
X71928686Y-153550529D01*
X71921812Y-153572214D01*
X71914130Y-153592977D01*
X71905639Y-153612816D01*
X71896339Y-153631733D01*
X71886230Y-153649728D01*
X71875313Y-153666799D01*
X71863588Y-153682948D01*
X71851053Y-153698174D01*
X71837824Y-153712477D01*
X71824094Y-153725857D01*
X71809863Y-153738315D01*
X71795131Y-153749849D01*
X71779897Y-153760461D01*
X71764163Y-153770150D01*
X71747928Y-153778917D01*
X71731191Y-153786760D01*
X71713953Y-153793681D01*
X71696215Y-153799679D01*
X71677975Y-153804755D01*
X71659234Y-153808907D01*
X71639992Y-153812137D01*
X71620249Y-153814444D01*
X71600005Y-153815828D01*
X71579260Y-153816289D01*
X71563716Y-153815996D01*
X71548161Y-153815117D01*
X71532594Y-153813652D01*
X71517017Y-153811601D01*
X71501428Y-153808964D01*
X71485828Y-153805741D01*
X71470217Y-153801931D01*
X71454595Y-153797536D01*
X71438962Y-153792555D01*
X71423317Y-153786987D01*
X71412882Y-153782950D01*
X71397431Y-153776574D01*
X71382393Y-153769946D01*
X71367768Y-153763067D01*
X71353556Y-153755937D01*
X71339757Y-153748555D01*
X71326371Y-153740923D01*
X71313398Y-153733039D01*
X71300838Y-153724904D01*
X71288691Y-153716519D01*
X71276958Y-153707881D01*
X71269364Y-153701984D01*
X71269364Y-153531795D01*
X71572274Y-153531795D01*
G37*
G36*
X70774357Y-154019500D02*
G01*
X70774357Y-152698634D01*
X70510184Y-152698634D01*
X70510184Y-154019500D01*
X70774357Y-154019500D01*
G37*
G36*
X70075188Y-154019500D02*
G01*
X70387623Y-152698634D01*
X70117100Y-152698634D01*
X69919923Y-153606094D01*
X69680516Y-152698634D01*
X69366175Y-152698634D01*
X69136611Y-153621335D01*
X68935624Y-152698634D01*
X68669546Y-152698634D01*
X68987379Y-154019500D01*
X69267745Y-154019500D01*
X69528743Y-153032026D01*
X69788471Y-154019500D01*
X70075188Y-154019500D01*
G37*
G36*
X67984162Y-152678517D02*
G01*
X68003691Y-152679127D01*
X68022929Y-152680144D01*
X68041877Y-152681568D01*
X68060535Y-152683398D01*
X68078902Y-152685636D01*
X68096979Y-152688280D01*
X68114767Y-152691331D01*
X68132263Y-152694789D01*
X68149470Y-152698654D01*
X68166386Y-152702926D01*
X68183013Y-152707604D01*
X68199349Y-152712689D01*
X68215394Y-152718181D01*
X68231150Y-152724080D01*
X68246615Y-152730386D01*
X68252336Y-152732847D01*
X68269332Y-152740715D01*
X68286077Y-152749308D01*
X68302571Y-152758627D01*
X68313427Y-152765243D01*
X68324172Y-152772181D01*
X68334805Y-152779442D01*
X68345326Y-152787025D01*
X68355736Y-152794931D01*
X68366034Y-152803159D01*
X68376221Y-152811709D01*
X68386296Y-152820583D01*
X68396259Y-152829778D01*
X68406111Y-152839296D01*
X68415851Y-152849137D01*
X68425369Y-152859181D01*
X68434634Y-152869388D01*
X68443646Y-152879760D01*
X68452405Y-152890295D01*
X68460911Y-152900993D01*
X68469164Y-152911856D01*
X68477164Y-152922882D01*
X68484911Y-152934072D01*
X68492404Y-152945426D01*
X68499645Y-152956943D01*
X68506633Y-152968624D01*
X68513368Y-152980469D01*
X68519850Y-152992478D01*
X68526078Y-153004650D01*
X68532054Y-153016986D01*
X68537777Y-153029486D01*
X68545005Y-153046804D01*
X68551767Y-153064626D01*
X68558063Y-153082951D01*
X68563893Y-153101780D01*
X68569256Y-153121112D01*
X68574152Y-153140948D01*
X68578583Y-153161288D01*
X68582547Y-153182131D01*
X68586044Y-153203478D01*
X68589075Y-153225328D01*
X68591640Y-153247682D01*
X68593739Y-153270539D01*
X68595371Y-153293900D01*
X68596537Y-153317765D01*
X68597237Y-153342133D01*
X68597470Y-153367005D01*
X68597301Y-153386519D01*
X68596796Y-153405770D01*
X68595954Y-153424758D01*
X68594776Y-153443481D01*
X68593261Y-153461942D01*
X68591408Y-153480138D01*
X68589220Y-153498071D01*
X68586694Y-153515741D01*
X68583832Y-153533147D01*
X68580633Y-153550289D01*
X68577097Y-153567168D01*
X68573225Y-153583784D01*
X68569015Y-153600135D01*
X68564469Y-153616224D01*
X68559587Y-153632048D01*
X68554367Y-153647609D01*
X68548811Y-153662907D01*
X68542918Y-153677941D01*
X68536688Y-153692711D01*
X68530122Y-153707218D01*
X68523219Y-153721461D01*
X68515979Y-153735441D01*
X68508402Y-153749157D01*
X68500489Y-153762609D01*
X68492238Y-153775798D01*
X68483652Y-153788724D01*
X68474728Y-153801386D01*
X68465468Y-153813784D01*
X68455871Y-153825919D01*
X68445937Y-153837790D01*
X68435666Y-153849398D01*
X68425059Y-153860742D01*
X68414166Y-153871759D01*
X68403040Y-153882427D01*
X68391680Y-153892745D01*
X68380086Y-153902713D01*
X68368258Y-153912332D01*
X68356196Y-153921600D01*
X68343901Y-153930519D01*
X68331372Y-153939089D01*
X68318609Y-153947308D01*
X68305612Y-153955178D01*
X68292382Y-153962698D01*
X68278917Y-153969868D01*
X68265219Y-153976688D01*
X68251287Y-153983159D01*
X68237121Y-153989280D01*
X68222722Y-153995051D01*
X68208089Y-154000472D01*
X68193221Y-154005544D01*
X68178121Y-154010265D01*
X68162786Y-154014638D01*
X68147217Y-154018660D01*
X68131415Y-154022332D01*
X68115379Y-154025655D01*
X68099109Y-154028628D01*
X68082605Y-154031251D01*
X68065868Y-154033525D01*
X68048897Y-154035448D01*
X68031692Y-154037022D01*
X68014253Y-154038247D01*
X67996580Y-154039121D01*
X67978674Y-154039646D01*
X67960533Y-154039821D01*
X67942627Y-154039645D01*
X67924948Y-154039117D01*
X67907495Y-154038238D01*
X67890268Y-154037008D01*
X67873268Y-154035425D01*
X67856494Y-154033491D01*
X67839946Y-154031206D01*
X67823625Y-154028569D01*
X67807530Y-154025580D01*
X67791661Y-154022239D01*
X67776019Y-154018547D01*
X67760603Y-154014504D01*
X67745413Y-154010108D01*
X67730450Y-154005361D01*
X67715713Y-154000263D01*
X67701202Y-153994813D01*
X67686918Y-153989011D01*
X67672860Y-153982857D01*
X67659029Y-153976352D01*
X67645424Y-153969496D01*
X67632045Y-153962287D01*
X67618893Y-153954728D01*
X67605967Y-153946816D01*
X67593267Y-153938553D01*
X67580794Y-153929938D01*
X67568547Y-153920972D01*
X67556526Y-153911654D01*
X67544732Y-153901984D01*
X67533164Y-153891963D01*
X67521822Y-153881590D01*
X67510707Y-153870865D01*
X67499818Y-153859789D01*
X67489211Y-153848402D01*
X67478940Y-153836743D01*
X67469006Y-153824814D01*
X67459409Y-153812613D01*
X67450149Y-153800142D01*
X67441225Y-153787399D01*
X67432638Y-153774386D01*
X67424388Y-153761101D01*
X67416475Y-153747546D01*
X67408898Y-153733719D01*
X67401658Y-153719622D01*
X67394755Y-153705253D01*
X67388189Y-153690614D01*
X67381959Y-153675703D01*
X67376066Y-153660522D01*
X67370510Y-153645069D01*
X67365290Y-153629346D01*
X67360408Y-153613351D01*
X67355862Y-153597085D01*
X67351652Y-153580549D01*
X67347780Y-153563741D01*
X67344244Y-153546663D01*
X67341045Y-153529313D01*
X67338183Y-153511693D01*
X67335657Y-153493801D01*
X67333468Y-153475639D01*
X67331616Y-153457205D01*
X67330101Y-153438500D01*
X67328922Y-153419525D01*
X67328080Y-153400278D01*
X67327575Y-153380761D01*
X67327407Y-153360972D01*
X67327461Y-153354622D01*
X67600788Y-153354622D01*
X67600887Y-153368936D01*
X67601184Y-153383026D01*
X67601678Y-153396890D01*
X67602371Y-153410529D01*
X67603261Y-153423943D01*
X67604349Y-153437132D01*
X67605635Y-153450096D01*
X67607119Y-153462835D01*
X67610679Y-153487637D01*
X67615032Y-153511539D01*
X67620175Y-153534540D01*
X67626110Y-153556641D01*
X67632836Y-153577841D01*
X67640353Y-153598141D01*
X67648662Y-153617541D01*
X67657762Y-153636040D01*
X67667654Y-153653638D01*
X67678336Y-153670336D01*
X67689810Y-153686134D01*
X67702076Y-153701031D01*
X67714958Y-153714988D01*
X67728285Y-153728045D01*
X67742056Y-153740201D01*
X67756272Y-153751457D01*
X67770931Y-153761812D01*
X67786034Y-153771267D01*
X67801581Y-153779821D01*
X67817572Y-153787475D01*
X67834007Y-153794228D01*
X67850886Y-153800081D01*
X67868209Y-153805034D01*
X67885977Y-153809086D01*
X67904188Y-153812237D01*
X67922843Y-153814489D01*
X67941943Y-153815839D01*
X67961486Y-153816289D01*
X67981035Y-153815836D01*
X68000153Y-153814474D01*
X68018840Y-153812204D01*
X68037094Y-153809026D01*
X68054917Y-153804941D01*
X68072309Y-153799947D01*
X68089269Y-153794046D01*
X68105797Y-153787237D01*
X68121893Y-153779520D01*
X68137558Y-153770895D01*
X68152792Y-153761362D01*
X68167593Y-153750921D01*
X68181963Y-153739572D01*
X68195902Y-153727316D01*
X68209409Y-153714151D01*
X68222484Y-153700079D01*
X68228793Y-153692689D01*
X68240812Y-153677272D01*
X68252029Y-153661005D01*
X68262445Y-153643886D01*
X68272060Y-153625917D01*
X68280873Y-153607097D01*
X68288886Y-153587425D01*
X68296097Y-153566904D01*
X68302507Y-153545531D01*
X68308115Y-153523307D01*
X68312923Y-153500233D01*
X68316929Y-153476307D01*
X68320134Y-153451531D01*
X68321436Y-153438824D01*
X68322538Y-153425904D01*
X68323439Y-153412772D01*
X68324140Y-153399426D01*
X68324641Y-153385868D01*
X68324941Y-153372098D01*
X68325041Y-153358114D01*
X68324944Y-153343919D01*
X68324651Y-153329948D01*
X68324162Y-153316203D01*
X68323479Y-153302683D01*
X68322600Y-153289388D01*
X68321525Y-153276318D01*
X68320255Y-153263473D01*
X68318790Y-153250854D01*
X68315274Y-153226289D01*
X68310976Y-153202626D01*
X68305897Y-153179863D01*
X68300037Y-153158000D01*
X68293395Y-153137038D01*
X68285972Y-153116976D01*
X68277767Y-153097815D01*
X68268782Y-153079554D01*
X68259014Y-153062193D01*
X68248465Y-153045733D01*
X68237135Y-153030174D01*
X68225024Y-153015515D01*
X68212274Y-153001750D01*
X68199027Y-152988873D01*
X68185285Y-152976885D01*
X68171046Y-152965784D01*
X68156312Y-152955571D01*
X68141081Y-152946247D01*
X68125354Y-152937810D01*
X68109131Y-152930262D01*
X68092411Y-152923601D01*
X68075196Y-152917829D01*
X68057485Y-152912945D01*
X68039277Y-152908949D01*
X68020574Y-152905840D01*
X68001374Y-152903620D01*
X67981678Y-152902288D01*
X67961486Y-152901844D01*
X67941337Y-152902283D01*
X67921692Y-152903600D01*
X67902551Y-152905796D01*
X67883913Y-152908869D01*
X67865778Y-152912821D01*
X67848148Y-152917651D01*
X67831020Y-152923358D01*
X67814397Y-152929944D01*
X67798277Y-152937408D01*
X67782660Y-152945751D01*
X67767547Y-152954971D01*
X67752938Y-152965070D01*
X67738832Y-152976046D01*
X67725229Y-152987901D01*
X67712131Y-153000634D01*
X67699535Y-153014245D01*
X67693460Y-153021363D01*
X67681888Y-153036282D01*
X67671088Y-153052108D01*
X67661059Y-153068842D01*
X67651801Y-153086484D01*
X67643315Y-153105034D01*
X67635600Y-153124492D01*
X67628657Y-153144857D01*
X67622485Y-153166131D01*
X67617085Y-153188312D01*
X67612456Y-153211402D01*
X67608599Y-153235399D01*
X67605513Y-153260304D01*
X67604260Y-153273097D01*
X67603199Y-153286117D01*
X67602331Y-153299364D01*
X67601656Y-153312838D01*
X67601174Y-153326539D01*
X67600884Y-153340467D01*
X67600788Y-153354622D01*
X67327461Y-153354622D01*
X67327577Y-153341007D01*
X67328085Y-153321318D01*
X67328934Y-153301906D01*
X67330121Y-153282769D01*
X67331647Y-153263908D01*
X67333513Y-153245323D01*
X67335718Y-153227014D01*
X67338262Y-153208981D01*
X67341145Y-153191224D01*
X67344368Y-153173743D01*
X67347930Y-153156538D01*
X67351831Y-153139609D01*
X67356071Y-153122956D01*
X67360651Y-153106579D01*
X67365569Y-153090477D01*
X67370827Y-153074652D01*
X67376424Y-153059103D01*
X67382361Y-153043830D01*
X67388636Y-153028832D01*
X67395251Y-153014111D01*
X67402205Y-152999665D01*
X67409498Y-152985496D01*
X67417131Y-152971602D01*
X67425103Y-152957985D01*
X67433414Y-152944643D01*
X67442064Y-152931578D01*
X67451053Y-152918788D01*
X67460382Y-152906275D01*
X67470049Y-152894037D01*
X67480056Y-152882075D01*
X67490403Y-152870389D01*
X67501088Y-152858980D01*
X67512056Y-152847864D01*
X67523251Y-152837102D01*
X67534672Y-152826693D01*
X67546319Y-152816636D01*
X67558193Y-152806932D01*
X67570293Y-152797581D01*
X67582619Y-152788583D01*
X67595172Y-152779938D01*
X67607951Y-152771646D01*
X67620956Y-152763706D01*
X67634188Y-152756120D01*
X67647646Y-152748886D01*
X67661331Y-152742005D01*
X67675242Y-152735477D01*
X67689379Y-152729302D01*
X67703742Y-152723480D01*
X67718332Y-152718010D01*
X67733149Y-152712894D01*
X67748191Y-152708130D01*
X67763460Y-152703719D01*
X67778956Y-152699661D01*
X67794677Y-152695956D01*
X67810625Y-152692604D01*
X67826800Y-152689605D01*
X67843200Y-152686958D01*
X67859828Y-152684665D01*
X67876681Y-152682724D01*
X67893761Y-152681136D01*
X67911067Y-152679901D01*
X67928599Y-152679019D01*
X67946358Y-152678490D01*
X67964344Y-152678313D01*
X67984162Y-152678517D01*
G37*
D11*
G36*
X69093324Y-78311600D02*
G01*
X68686415Y-78311600D01*
X68686415Y-77530022D01*
X68421168Y-77530022D01*
X68404045Y-77529994D01*
X68370565Y-77529769D01*
X68338104Y-77529319D01*
X68306661Y-77528643D01*
X68276238Y-77527743D01*
X68246833Y-77526617D01*
X68218448Y-77525266D01*
X68191081Y-77523690D01*
X68164733Y-77521888D01*
X68139404Y-77519862D01*
X68115095Y-77517610D01*
X68091804Y-77515134D01*
X68069532Y-77512432D01*
X68048279Y-77509505D01*
X68028045Y-77506352D01*
X67999605Y-77501202D01*
X67986186Y-77498082D01*
X67966117Y-77492694D01*
X67946115Y-77486456D01*
X67926183Y-77479367D01*
X67906319Y-77471429D01*
X67886524Y-77462640D01*
X67866797Y-77453002D01*
X67847140Y-77442513D01*
X67827551Y-77431175D01*
X67808030Y-77418986D01*
X67788579Y-77405947D01*
X67775775Y-77396759D01*
X67757099Y-77382183D01*
X67739058Y-77366654D01*
X67721653Y-77350172D01*
X67704884Y-77332737D01*
X67688749Y-77314349D01*
X67673250Y-77295007D01*
X67658387Y-77274713D01*
X67644159Y-77253465D01*
X67630566Y-77231264D01*
X67617609Y-77208110D01*
X67609446Y-77192128D01*
X67598189Y-77167295D01*
X67588116Y-77141432D01*
X67579229Y-77114539D01*
X67571527Y-77086615D01*
X67567050Y-77067426D01*
X67563101Y-77047780D01*
X67559677Y-77027676D01*
X67556781Y-77007114D01*
X67554411Y-76986094D01*
X67552568Y-76964615D01*
X67551251Y-76942679D01*
X67550461Y-76920285D01*
X67550265Y-76903295D01*
X67969318Y-76903295D01*
X67970036Y-76924941D01*
X67972188Y-76945916D01*
X67975776Y-76966218D01*
X67980798Y-76985849D01*
X67987255Y-77004809D01*
X67995147Y-77023096D01*
X68004474Y-77040712D01*
X68015236Y-77057657D01*
X68027265Y-77073716D01*
X68040393Y-77088676D01*
X68054620Y-77102536D01*
X68069946Y-77115298D01*
X68086372Y-77126961D01*
X68103896Y-77137524D01*
X68122520Y-77146989D01*
X68142242Y-77155354D01*
X68147466Y-77157247D01*
X68171470Y-77164220D01*
X68192740Y-77168818D01*
X68216808Y-77172875D01*
X68243676Y-77176391D01*
X68263143Y-77178435D01*
X68283854Y-77180238D01*
X68305809Y-77181801D01*
X68329008Y-77183123D01*
X68353451Y-77184205D01*
X68379139Y-77185047D01*
X68406070Y-77185648D01*
X68434246Y-77186008D01*
X68463666Y-77186128D01*
X68686415Y-77186128D01*
X68686415Y-76623393D01*
X68490044Y-76623393D01*
X68463141Y-76623446D01*
X68437387Y-76623607D01*
X68412781Y-76623874D01*
X68389325Y-76624248D01*
X68367016Y-76624729D01*
X68345857Y-76625316D01*
X68316272Y-76626398D01*
X68289271Y-76627721D01*
X68264855Y-76629283D01*
X68243023Y-76631087D01*
X68217935Y-76633865D01*
X68197441Y-76637071D01*
X68173192Y-76642291D01*
X68150028Y-76649161D01*
X68127947Y-76657679D01*
X68106949Y-76667845D01*
X68087036Y-76679660D01*
X68068206Y-76693124D01*
X68050460Y-76708237D01*
X68033799Y-76724998D01*
X68029831Y-76729431D01*
X68015223Y-76747898D01*
X68002629Y-76767541D01*
X67992050Y-76788358D01*
X67983486Y-76810352D01*
X67976938Y-76833520D01*
X67972404Y-76857865D01*
X67969885Y-76883384D01*
X67969318Y-76903295D01*
X67550265Y-76903295D01*
X67550198Y-76897433D01*
X67550654Y-76867798D01*
X67552022Y-76838853D01*
X67554302Y-76810599D01*
X67557494Y-76783036D01*
X67561599Y-76756164D01*
X67566615Y-76729982D01*
X67572544Y-76704491D01*
X67579385Y-76679691D01*
X67587138Y-76655581D01*
X67595802Y-76632163D01*
X67605379Y-76609435D01*
X67615868Y-76587398D01*
X67627270Y-76566051D01*
X67639583Y-76545396D01*
X67652808Y-76525431D01*
X67666946Y-76506156D01*
X67681761Y-76487644D01*
X67697018Y-76469963D01*
X67712718Y-76453114D01*
X67728861Y-76437097D01*
X67745447Y-76421912D01*
X67762475Y-76407559D01*
X67779946Y-76394037D01*
X67797860Y-76381348D01*
X67816216Y-76369491D01*
X67835015Y-76358466D01*
X67854257Y-76348272D01*
X67873942Y-76338911D01*
X67894069Y-76330382D01*
X67914639Y-76322684D01*
X67935651Y-76315819D01*
X67957106Y-76309785D01*
X67972162Y-76306118D01*
X67998537Y-76301060D01*
X68018649Y-76297984D01*
X68040783Y-76295145D01*
X68064940Y-76292542D01*
X68091120Y-76290176D01*
X68119323Y-76288047D01*
X68149548Y-76286154D01*
X68181795Y-76284497D01*
X68216066Y-76283078D01*
X68252359Y-76281895D01*
X68290674Y-76280948D01*
X68310591Y-76280564D01*
X68331012Y-76280238D01*
X68351940Y-76279972D01*
X68373373Y-76279765D01*
X68395312Y-76279617D01*
X68417757Y-76279529D01*
X68440707Y-76279499D01*
X69093324Y-76279499D01*
X69093324Y-78311600D01*
G37*
G36*
X66366313Y-76248549D02*
G01*
X66396356Y-76249488D01*
X66425954Y-76251052D01*
X66455104Y-76253243D01*
X66483809Y-76256059D01*
X66512066Y-76259502D01*
X66539878Y-76263570D01*
X66567242Y-76268264D01*
X66594161Y-76273584D01*
X66620632Y-76279530D01*
X66646658Y-76286101D01*
X66672236Y-76293299D01*
X66697368Y-76301122D01*
X66722054Y-76309571D01*
X66746293Y-76318647D01*
X66770086Y-76328348D01*
X66778888Y-76332134D01*
X66805036Y-76344239D01*
X66830797Y-76357459D01*
X66856172Y-76371796D01*
X66872874Y-76381974D01*
X66889404Y-76392648D01*
X66905763Y-76403819D01*
X66921950Y-76415485D01*
X66937965Y-76427648D01*
X66953808Y-76440306D01*
X66969480Y-76453461D01*
X66984980Y-76467112D01*
X67000308Y-76481259D01*
X67015464Y-76495902D01*
X67030449Y-76511041D01*
X67045092Y-76526493D01*
X67059346Y-76542197D01*
X67073210Y-76558153D01*
X67086686Y-76574361D01*
X67099772Y-76590821D01*
X67112469Y-76607532D01*
X67124776Y-76624496D01*
X67136695Y-76641711D01*
X67148224Y-76659178D01*
X67159363Y-76676897D01*
X67170114Y-76694868D01*
X67180475Y-76713091D01*
X67190447Y-76731566D01*
X67200030Y-76750292D01*
X67209223Y-76769271D01*
X67218027Y-76788501D01*
X67229148Y-76815145D01*
X67239551Y-76842563D01*
X67249237Y-76870756D01*
X67258205Y-76899723D01*
X67266456Y-76929465D01*
X67273990Y-76959982D01*
X67280805Y-76991274D01*
X67286904Y-77023341D01*
X67292285Y-77056182D01*
X67296948Y-77089798D01*
X67300894Y-77124188D01*
X67304123Y-77159353D01*
X67306634Y-77195293D01*
X67308428Y-77232008D01*
X67309504Y-77269497D01*
X67309863Y-77307761D01*
X67309604Y-77337784D01*
X67308827Y-77367401D01*
X67307531Y-77396612D01*
X67305718Y-77425418D01*
X67303387Y-77453818D01*
X67300538Y-77481813D01*
X67297170Y-77509402D01*
X67293285Y-77536586D01*
X67288881Y-77563365D01*
X67283960Y-77589738D01*
X67278520Y-77615705D01*
X67272562Y-77641267D01*
X67266086Y-77666424D01*
X67259093Y-77691175D01*
X67251581Y-77715521D01*
X67243551Y-77739461D01*
X67235003Y-77762995D01*
X67225937Y-77786124D01*
X67216353Y-77808848D01*
X67206250Y-77831166D01*
X67195630Y-77853079D01*
X67184492Y-77874586D01*
X67172835Y-77895688D01*
X67160661Y-77916384D01*
X67147968Y-77936675D01*
X67134758Y-77956560D01*
X67121029Y-77976040D01*
X67106782Y-77995114D01*
X67092018Y-78013783D01*
X67076735Y-78032046D01*
X67060934Y-78049904D01*
X67044615Y-78067357D01*
X67027857Y-78084307D01*
X67010740Y-78100719D01*
X66993262Y-78116593D01*
X66975426Y-78131928D01*
X66957229Y-78146726D01*
X66938673Y-78160986D01*
X66919757Y-78174707D01*
X66900481Y-78187890D01*
X66880846Y-78200536D01*
X66860851Y-78212643D01*
X66840496Y-78224212D01*
X66819782Y-78235243D01*
X66798708Y-78245736D01*
X66777274Y-78255691D01*
X66755481Y-78265107D01*
X66733327Y-78273986D01*
X66710815Y-78282327D01*
X66687942Y-78290129D01*
X66664710Y-78297393D01*
X66641118Y-78304120D01*
X66617167Y-78310308D01*
X66592855Y-78315958D01*
X66568184Y-78321070D01*
X66543154Y-78325643D01*
X66517764Y-78329679D01*
X66492014Y-78333177D01*
X66465904Y-78336136D01*
X66439435Y-78338558D01*
X66412606Y-78340441D01*
X66385417Y-78341786D01*
X66357869Y-78342594D01*
X66329960Y-78342863D01*
X66302413Y-78342592D01*
X66275214Y-78341781D01*
X66248363Y-78340428D01*
X66221860Y-78338535D01*
X66195706Y-78336101D01*
X66169899Y-78333125D01*
X66144441Y-78329609D01*
X66119331Y-78325552D01*
X66094570Y-78320954D01*
X66070157Y-78315815D01*
X66046092Y-78310135D01*
X66022375Y-78303913D01*
X65999006Y-78297151D01*
X65975986Y-78289849D01*
X65953314Y-78282005D01*
X65930990Y-78273620D01*
X65909014Y-78264694D01*
X65887387Y-78255227D01*
X65866107Y-78245219D01*
X65845177Y-78234671D01*
X65824594Y-78223581D01*
X65804359Y-78211950D01*
X65784473Y-78199779D01*
X65764935Y-78187066D01*
X65745745Y-78173813D01*
X65726904Y-78160018D01*
X65708411Y-78145683D01*
X65690266Y-78130806D01*
X65672469Y-78115389D01*
X65655020Y-78099431D01*
X65637920Y-78082931D01*
X65621168Y-78065891D01*
X65604849Y-78048372D01*
X65589048Y-78030436D01*
X65573765Y-78012083D01*
X65559000Y-77993313D01*
X65544754Y-77974126D01*
X65531025Y-77954522D01*
X65517814Y-77934501D01*
X65505122Y-77914064D01*
X65492947Y-77893209D01*
X65481291Y-77871938D01*
X65470153Y-77850249D01*
X65459532Y-77828144D01*
X65449430Y-77805621D01*
X65439846Y-77782682D01*
X65430780Y-77759326D01*
X65422232Y-77735553D01*
X65414202Y-77711363D01*
X65406690Y-77686756D01*
X65399696Y-77661732D01*
X65393220Y-77636291D01*
X65387263Y-77610433D01*
X65381823Y-77584158D01*
X65376901Y-77557467D01*
X65372498Y-77530358D01*
X65368612Y-77502833D01*
X65365245Y-77474890D01*
X65362396Y-77446531D01*
X65360064Y-77417755D01*
X65358251Y-77388561D01*
X65356956Y-77358951D01*
X65356179Y-77328924D01*
X65355920Y-77298480D01*
X65356003Y-77288710D01*
X65776506Y-77288710D01*
X65776658Y-77310733D01*
X65777115Y-77332409D01*
X65777876Y-77353739D01*
X65778941Y-77374722D01*
X65780310Y-77395359D01*
X65781984Y-77415650D01*
X65783963Y-77435594D01*
X65786245Y-77455192D01*
X65791724Y-77493350D01*
X65798419Y-77530122D01*
X65806332Y-77565508D01*
X65815463Y-77599509D01*
X65825811Y-77632125D01*
X65837376Y-77663356D01*
X65850159Y-77693201D01*
X65864159Y-77721661D01*
X65879376Y-77748736D01*
X65895811Y-77774426D01*
X65913463Y-77798730D01*
X65932333Y-77821648D01*
X65952153Y-77843121D01*
X65972656Y-77863208D01*
X65993842Y-77881910D01*
X66015711Y-77899226D01*
X66038264Y-77915157D01*
X66061499Y-77929703D01*
X66085418Y-77942863D01*
X66110020Y-77954639D01*
X66135305Y-77965028D01*
X66161273Y-77974033D01*
X66187924Y-77981652D01*
X66215258Y-77987886D01*
X66243275Y-77992735D01*
X66271976Y-77996198D01*
X66301359Y-77998276D01*
X66331426Y-77998969D01*
X66361502Y-77998270D01*
X66390914Y-77996175D01*
X66419662Y-77992683D01*
X66447747Y-77987795D01*
X66475167Y-77981509D01*
X66501923Y-77973827D01*
X66528015Y-77964748D01*
X66553443Y-77954272D01*
X66578207Y-77942400D01*
X66602306Y-77929130D01*
X66625742Y-77914464D01*
X66648514Y-77898402D01*
X66670622Y-77880942D01*
X66692066Y-77862086D01*
X66712845Y-77841833D01*
X66732961Y-77820183D01*
X66742668Y-77808815D01*
X66761158Y-77785096D01*
X66778416Y-77760069D01*
X66794440Y-77733733D01*
X66809232Y-77706088D01*
X66822791Y-77677133D01*
X66835118Y-77646870D01*
X66846212Y-77615298D01*
X66856073Y-77582417D01*
X66864702Y-77548227D01*
X66872098Y-77512727D01*
X66878261Y-77475919D01*
X66883192Y-77437802D01*
X66885195Y-77418253D01*
X66886890Y-77398376D01*
X66888277Y-77378172D01*
X66889355Y-77357641D01*
X66890126Y-77336782D01*
X66890588Y-77315597D01*
X66890742Y-77294084D01*
X66890592Y-77272245D01*
X66890141Y-77250752D01*
X66889390Y-77229605D01*
X66888338Y-77208805D01*
X66886985Y-77188351D01*
X66885332Y-77168243D01*
X66883379Y-77148482D01*
X66881125Y-77129067D01*
X66875715Y-77091276D01*
X66869104Y-77054871D01*
X66861290Y-77019851D01*
X66852274Y-76986216D01*
X66842056Y-76953966D01*
X66830635Y-76923102D01*
X66818013Y-76893623D01*
X66804188Y-76865529D01*
X66789162Y-76838821D01*
X66772933Y-76813498D01*
X66755502Y-76789560D01*
X66736869Y-76767008D01*
X66717253Y-76745831D01*
X66696874Y-76726021D01*
X66675732Y-76707577D01*
X66653826Y-76690499D01*
X66631158Y-76674787D01*
X66607726Y-76660442D01*
X66583530Y-76647462D01*
X66558572Y-76635849D01*
X66532850Y-76625603D01*
X66506365Y-76616722D01*
X66479116Y-76609208D01*
X66451105Y-76603060D01*
X66422330Y-76598278D01*
X66392792Y-76594862D01*
X66362491Y-76592813D01*
X66331426Y-76592130D01*
X66300428Y-76592805D01*
X66270205Y-76594832D01*
X66240756Y-76598209D01*
X66212083Y-76602938D01*
X66184184Y-76609017D01*
X66157059Y-76616447D01*
X66130710Y-76625229D01*
X66105135Y-76635361D01*
X66080335Y-76646844D01*
X66056309Y-76659678D01*
X66033058Y-76673863D01*
X66010582Y-76689400D01*
X65988881Y-76706287D01*
X65967954Y-76724525D01*
X65947802Y-76744114D01*
X65928425Y-76765054D01*
X65919079Y-76776006D01*
X65901276Y-76798957D01*
X65884659Y-76823305D01*
X65869230Y-76849049D01*
X65854988Y-76876191D01*
X65841932Y-76904729D01*
X65830064Y-76934664D01*
X65819382Y-76965996D01*
X65809887Y-76998725D01*
X65801579Y-77032850D01*
X65794458Y-77068372D01*
X65788523Y-77105291D01*
X65783776Y-77143606D01*
X65781847Y-77163288D01*
X65780215Y-77183319D01*
X65778880Y-77203699D01*
X65777841Y-77224428D01*
X65777100Y-77245506D01*
X65776654Y-77266934D01*
X65776506Y-77288710D01*
X65356003Y-77288710D01*
X65356181Y-77267765D01*
X65356964Y-77237475D01*
X65358268Y-77207609D01*
X65360095Y-77178168D01*
X65362443Y-77149151D01*
X65365314Y-77120559D01*
X65368706Y-77092391D01*
X65372620Y-77064648D01*
X65377056Y-77037330D01*
X65382014Y-77010436D01*
X65387494Y-76983966D01*
X65393495Y-76957922D01*
X65400019Y-76932301D01*
X65407064Y-76907106D01*
X65414631Y-76882335D01*
X65422720Y-76857988D01*
X65431331Y-76834066D01*
X65440464Y-76810569D01*
X65450119Y-76787496D01*
X65460296Y-76764848D01*
X65470994Y-76742624D01*
X65482214Y-76720825D01*
X65493957Y-76699450D01*
X65506221Y-76678500D01*
X65519007Y-76657975D01*
X65532315Y-76637874D01*
X65546145Y-76618198D01*
X65560496Y-76598946D01*
X65575370Y-76580119D01*
X65590765Y-76561716D01*
X65606682Y-76543738D01*
X65623122Y-76526184D01*
X65639996Y-76509084D01*
X65657218Y-76492526D01*
X65674789Y-76476512D01*
X65692708Y-76461040D01*
X65710975Y-76446111D01*
X65729591Y-76431725D01*
X65748554Y-76417882D01*
X65767866Y-76404582D01*
X65787526Y-76391824D01*
X65807535Y-76379610D01*
X65827891Y-76367938D01*
X65848596Y-76356810D01*
X65869649Y-76346224D01*
X65891050Y-76336181D01*
X65912800Y-76326680D01*
X65934898Y-76317723D01*
X65957344Y-76309309D01*
X65980138Y-76301437D01*
X66003280Y-76294108D01*
X66026771Y-76287322D01*
X66050610Y-76281079D01*
X66074797Y-76275379D01*
X66099333Y-76270222D01*
X66124216Y-76265608D01*
X66149448Y-76261536D01*
X66175028Y-76258008D01*
X66200957Y-76255022D01*
X66227233Y-76252579D01*
X66253858Y-76250679D01*
X66280831Y-76249322D01*
X66308153Y-76248507D01*
X66335822Y-76248236D01*
X66366313Y-76248549D01*
G37*
G36*
X64597302Y-78311600D02*
G01*
X64597302Y-76623393D01*
X65194720Y-76623393D01*
X65194720Y-76279499D01*
X63594441Y-76279499D01*
X63594441Y-76623393D01*
X64190393Y-76623393D01*
X64190393Y-78311600D01*
X64597302Y-78311600D01*
G37*
G36*
X62122145Y-77936442D02*
G01*
X62122145Y-78311600D01*
X63475739Y-78311600D01*
X63472647Y-78286465D01*
X63468869Y-78261499D01*
X63464404Y-78236701D01*
X63459252Y-78212071D01*
X63453413Y-78187608D01*
X63446887Y-78163314D01*
X63439675Y-78139187D01*
X63431775Y-78115228D01*
X63423188Y-78091437D01*
X63413915Y-78067815D01*
X63403954Y-78044360D01*
X63393307Y-78021073D01*
X63381972Y-77997954D01*
X63369951Y-77975002D01*
X63357243Y-77952219D01*
X63343847Y-77929604D01*
X63329271Y-77906551D01*
X63313019Y-77882579D01*
X63295092Y-77857688D01*
X63275490Y-77831876D01*
X63254212Y-77805145D01*
X63231259Y-77777494D01*
X63206631Y-77748923D01*
X63180327Y-77719433D01*
X63166547Y-77704343D01*
X63152348Y-77689023D01*
X63137730Y-77673473D01*
X63122693Y-77657693D01*
X63107238Y-77641683D01*
X63091363Y-77625443D01*
X63075070Y-77608973D01*
X63058358Y-77592274D01*
X63041227Y-77575344D01*
X63023677Y-77558185D01*
X63005709Y-77540795D01*
X62987322Y-77523176D01*
X62968515Y-77505327D01*
X62949290Y-77487247D01*
X62929646Y-77468938D01*
X62909584Y-77450399D01*
X62893447Y-77435469D01*
X62877706Y-77420844D01*
X62862360Y-77406523D01*
X62847409Y-77392506D01*
X62832852Y-77378794D01*
X62804925Y-77352282D01*
X62778577Y-77326987D01*
X62753809Y-77302910D01*
X62730621Y-77280051D01*
X62709013Y-77258409D01*
X62688986Y-77237984D01*
X62670538Y-77218776D01*
X62653670Y-77200786D01*
X62638381Y-77184014D01*
X62624673Y-77168459D01*
X62607074Y-77147408D01*
X62593029Y-77129097D01*
X62589137Y-77123602D01*
X62574907Y-77101371D01*
X62562078Y-77079192D01*
X62550647Y-77057064D01*
X62540617Y-77034988D01*
X62531986Y-77012963D01*
X62524754Y-76990990D01*
X62518922Y-76969068D01*
X62514490Y-76947198D01*
X62511458Y-76925379D01*
X62509825Y-76903612D01*
X62509514Y-76889129D01*
X62510123Y-76865652D01*
X62511952Y-76843213D01*
X62515001Y-76821814D01*
X62519268Y-76801454D01*
X62524755Y-76782132D01*
X62533968Y-76757986D01*
X62545348Y-76735688D01*
X62558896Y-76715236D01*
X62574611Y-76696632D01*
X62578879Y-76692269D01*
X62597044Y-76676126D01*
X62616859Y-76662136D01*
X62638321Y-76650298D01*
X62661433Y-76640612D01*
X62686193Y-76633079D01*
X62705845Y-76628841D01*
X62726424Y-76625814D01*
X62747931Y-76623998D01*
X62770365Y-76623393D01*
X62792642Y-76624028D01*
X62814043Y-76625935D01*
X62834568Y-76629112D01*
X62854217Y-76633560D01*
X62872990Y-76639278D01*
X62896659Y-76648880D01*
X62918770Y-76660741D01*
X62939325Y-76674861D01*
X62958322Y-76691241D01*
X62962829Y-76695689D01*
X62979719Y-76715259D01*
X62991155Y-76731900D01*
X63001535Y-76750224D01*
X63010859Y-76770231D01*
X63019127Y-76791921D01*
X63026338Y-76815293D01*
X63032493Y-76840349D01*
X63037592Y-76867088D01*
X63041635Y-76895510D01*
X63043744Y-76915393D01*
X63045383Y-76936024D01*
X63430309Y-76897922D01*
X63428029Y-76877436D01*
X63425461Y-76857315D01*
X63422606Y-76837559D01*
X63419463Y-76818169D01*
X63412317Y-76780485D01*
X63404023Y-76744263D01*
X63394579Y-76709502D01*
X63383987Y-76676203D01*
X63372246Y-76644365D01*
X63359357Y-76613990D01*
X63345319Y-76585075D01*
X63330132Y-76557623D01*
X63313796Y-76531632D01*
X63296312Y-76507103D01*
X63277679Y-76484035D01*
X63257897Y-76462429D01*
X63236966Y-76442285D01*
X63214887Y-76423602D01*
X63191820Y-76406152D01*
X63168046Y-76389828D01*
X63143566Y-76374630D01*
X63118381Y-76360557D01*
X63092489Y-76347610D01*
X63065891Y-76335789D01*
X63038588Y-76325094D01*
X63010578Y-76315525D01*
X62981862Y-76307081D01*
X62952441Y-76299764D01*
X62922313Y-76293572D01*
X62891479Y-76288505D01*
X62859939Y-76284565D01*
X62827694Y-76281751D01*
X62794742Y-76280062D01*
X62761084Y-76279499D01*
X62724335Y-76280125D01*
X62688582Y-76282003D01*
X62653825Y-76285132D01*
X62620064Y-76289513D01*
X62587299Y-76295146D01*
X62555531Y-76302030D01*
X62524758Y-76310167D01*
X62494981Y-76319555D01*
X62466201Y-76330195D01*
X62438416Y-76342086D01*
X62411628Y-76355230D01*
X62385835Y-76369625D01*
X62361039Y-76385271D01*
X62337239Y-76402170D01*
X62314434Y-76420320D01*
X62292626Y-76439722D01*
X62271982Y-76459996D01*
X62252670Y-76480885D01*
X62234689Y-76502388D01*
X62218040Y-76524505D01*
X62202724Y-76547237D01*
X62188739Y-76570583D01*
X62176086Y-76594544D01*
X62164765Y-76619119D01*
X62154776Y-76644308D01*
X62146119Y-76670112D01*
X62138793Y-76696530D01*
X62132800Y-76723563D01*
X62128138Y-76751210D01*
X62124808Y-76779472D01*
X62122811Y-76808348D01*
X62122145Y-76837838D01*
X62122574Y-76863097D01*
X62123862Y-76888133D01*
X62126009Y-76912946D01*
X62129014Y-76937535D01*
X62132878Y-76961901D01*
X62137601Y-76986044D01*
X62143182Y-77009964D01*
X62149622Y-77033660D01*
X62156921Y-77057133D01*
X62165078Y-77080383D01*
X62170993Y-77095759D01*
X62180650Y-77118764D01*
X62191304Y-77141983D01*
X62202953Y-77165418D01*
X62215598Y-77189067D01*
X62229239Y-77212931D01*
X62243877Y-77237009D01*
X62259510Y-77261302D01*
X62270486Y-77277617D01*
X62281904Y-77294027D01*
X62293765Y-77310533D01*
X62306069Y-77327133D01*
X62318815Y-77343830D01*
X62325355Y-77352214D01*
X62339531Y-77369570D01*
X62355683Y-77388300D01*
X62373809Y-77408405D01*
X62393911Y-77429883D01*
X62408409Y-77444965D01*
X62423785Y-77460657D01*
X62440038Y-77476961D01*
X62457170Y-77493874D01*
X62475179Y-77511399D01*
X62494065Y-77529534D01*
X62513830Y-77548280D01*
X62534472Y-77567636D01*
X62555992Y-77587603D01*
X62578390Y-77608180D01*
X62600704Y-77628567D01*
X62621972Y-77648083D01*
X62642195Y-77666730D01*
X62661372Y-77684506D01*
X62679503Y-77701412D01*
X62696589Y-77717448D01*
X62712628Y-77732614D01*
X62727623Y-77746910D01*
X62748153Y-77766722D01*
X62766331Y-77784577D01*
X62782157Y-77800474D01*
X62799597Y-77818624D01*
X62809933Y-77829953D01*
X62824745Y-77846978D01*
X62838650Y-77863860D01*
X62851649Y-77880600D01*
X62863742Y-77897196D01*
X62874929Y-77913649D01*
X62887156Y-77933203D01*
X62889067Y-77936442D01*
X62122145Y-77936442D01*
G37*
G36*
X71630393Y-134699600D02*
G01*
X71630393Y-132667499D01*
X70249933Y-132667499D01*
X70249933Y-133011393D01*
X71223973Y-133011393D01*
X71223973Y-133480339D01*
X70383289Y-133480339D01*
X70383289Y-133824233D01*
X71223973Y-133824233D01*
X71223973Y-134699600D01*
X71630393Y-134699600D01*
G37*
G36*
X69020903Y-134699600D02*
G01*
X69406806Y-134699600D01*
X69406806Y-133229258D01*
X69433541Y-133255327D01*
X69460868Y-133280533D01*
X69488786Y-133304877D01*
X69517296Y-133328359D01*
X69546397Y-133350978D01*
X69576089Y-133372735D01*
X69606374Y-133393629D01*
X69637249Y-133413661D01*
X69668717Y-133432830D01*
X69700775Y-133451137D01*
X69733426Y-133468581D01*
X69766668Y-133485163D01*
X69800501Y-133500882D01*
X69834926Y-133515739D01*
X69869942Y-133529734D01*
X69905550Y-133542865D01*
X69905550Y-133167708D01*
X69886579Y-133161324D01*
X69867402Y-133154260D01*
X69848019Y-133146516D01*
X69828430Y-133138094D01*
X69808635Y-133128992D01*
X69788634Y-133119211D01*
X69768427Y-133108750D01*
X69748013Y-133097611D01*
X69727394Y-133085792D01*
X69706568Y-133073293D01*
X69685537Y-133060116D01*
X69664299Y-133046259D01*
X69642855Y-133031722D01*
X69621206Y-133016507D01*
X69599350Y-133000612D01*
X69577288Y-132984038D01*
X69555558Y-132966887D01*
X69534698Y-132949386D01*
X69514708Y-132931533D01*
X69495588Y-132913329D01*
X69477339Y-132894775D01*
X69459960Y-132875869D01*
X69443450Y-132856612D01*
X69427811Y-132837004D01*
X69413042Y-132817044D01*
X69399143Y-132796734D01*
X69386114Y-132776073D01*
X69373956Y-132755060D01*
X69362667Y-132733696D01*
X69352248Y-132711982D01*
X69342700Y-132689916D01*
X69334022Y-132667499D01*
X69020903Y-132667499D01*
X69020903Y-134699600D01*
G37*
D13*
G36*
X70336256Y-38329000D02*
G01*
X70336256Y-35280849D01*
X69575439Y-35280849D01*
X69118705Y-37360332D01*
X68666856Y-35280849D01*
X67904818Y-35280849D01*
X67904818Y-38329000D01*
X68376818Y-38329000D01*
X68376818Y-35929314D01*
X68876905Y-38329000D01*
X69366001Y-38329000D01*
X69864256Y-35929314D01*
X69864256Y-38329000D01*
X70336256Y-38329000D01*
G37*
G36*
X66339477Y-35234424D02*
G01*
X66377032Y-35235832D01*
X66414028Y-35238179D01*
X66450467Y-35241465D01*
X66486347Y-35245689D01*
X66521669Y-35250853D01*
X66556433Y-35256955D01*
X66590639Y-35263996D01*
X66624287Y-35271976D01*
X66657377Y-35280895D01*
X66689908Y-35290752D01*
X66721881Y-35301548D01*
X66753297Y-35313283D01*
X66784154Y-35325957D01*
X66814453Y-35339570D01*
X66844194Y-35354122D01*
X66855196Y-35359802D01*
X66887881Y-35377958D01*
X66920082Y-35397789D01*
X66951801Y-35419294D01*
X66972679Y-35434561D01*
X66993342Y-35450573D01*
X67013790Y-35467328D01*
X67034023Y-35484828D01*
X67054042Y-35503072D01*
X67073846Y-35522060D01*
X67093436Y-35541792D01*
X67112811Y-35562268D01*
X67131971Y-35583489D01*
X67150916Y-35605453D01*
X67169647Y-35628162D01*
X67187951Y-35651340D01*
X67205769Y-35674896D01*
X67223099Y-35698830D01*
X67239943Y-35723142D01*
X67256301Y-35747832D01*
X67272172Y-35772899D01*
X67287556Y-35798344D01*
X67302454Y-35824167D01*
X67316866Y-35850368D01*
X67330790Y-35876946D01*
X67344228Y-35903903D01*
X67357180Y-35931237D01*
X67369645Y-35958949D01*
X67381623Y-35987039D01*
X67393115Y-36015506D01*
X67404120Y-36044352D01*
X67418021Y-36084317D01*
X67431025Y-36125444D01*
X67443132Y-36167734D01*
X67454343Y-36211185D01*
X67464656Y-36255798D01*
X67474073Y-36301574D01*
X67482593Y-36348512D01*
X67490216Y-36396611D01*
X67496942Y-36445873D01*
X67502772Y-36496297D01*
X67507704Y-36547882D01*
X67511740Y-36600630D01*
X67514879Y-36654540D01*
X67517121Y-36709612D01*
X67518466Y-36765846D01*
X67518915Y-36823242D01*
X67518591Y-36868276D01*
X67517619Y-36912701D01*
X67516000Y-36956518D01*
X67513734Y-36999727D01*
X67510820Y-37042327D01*
X67507258Y-37084320D01*
X67503049Y-37125704D01*
X67498192Y-37166480D01*
X67492688Y-37206648D01*
X67486536Y-37246207D01*
X67479736Y-37285158D01*
X67472289Y-37323501D01*
X67464194Y-37361236D01*
X67455452Y-37398363D01*
X67446062Y-37434881D01*
X67436025Y-37470791D01*
X67425340Y-37506093D01*
X67414007Y-37540787D01*
X67402027Y-37574872D01*
X67389399Y-37608350D01*
X67376124Y-37641219D01*
X67362201Y-37673479D01*
X67347630Y-37705132D01*
X67332412Y-37736176D01*
X67316547Y-37766612D01*
X67300033Y-37796440D01*
X67282873Y-37825660D01*
X67265064Y-37854272D01*
X67246608Y-37882275D01*
X67227505Y-37909670D01*
X67207754Y-37936457D01*
X67187355Y-37962635D01*
X67166408Y-37988060D01*
X67145011Y-38012678D01*
X67123164Y-38036489D01*
X67100868Y-38059493D01*
X67078122Y-38081689D01*
X67054927Y-38103079D01*
X67031282Y-38123661D01*
X67007188Y-38143436D01*
X66982643Y-38162404D01*
X66957650Y-38180565D01*
X66932206Y-38197918D01*
X66906313Y-38214465D01*
X66879971Y-38230204D01*
X66853179Y-38245136D01*
X66825937Y-38259261D01*
X66798246Y-38272579D01*
X66770105Y-38285090D01*
X66741514Y-38296794D01*
X66712474Y-38307690D01*
X66682984Y-38317780D01*
X66653044Y-38327062D01*
X66622655Y-38335537D01*
X66591817Y-38343205D01*
X66560529Y-38350065D01*
X66528791Y-38356119D01*
X66496603Y-38361365D01*
X66463966Y-38365805D01*
X66430879Y-38369437D01*
X66397343Y-38372262D01*
X66363357Y-38374280D01*
X66328922Y-38375491D01*
X66294037Y-38375894D01*
X66259602Y-38375488D01*
X66225603Y-38374271D01*
X66192040Y-38372243D01*
X66158911Y-38369403D01*
X66126218Y-38365751D01*
X66093960Y-38361288D01*
X66062138Y-38356014D01*
X66030751Y-38349928D01*
X65999799Y-38343031D01*
X65969282Y-38335322D01*
X65939201Y-38326802D01*
X65909555Y-38317470D01*
X65880344Y-38307327D01*
X65851568Y-38296373D01*
X65823228Y-38284607D01*
X65795323Y-38272030D01*
X65767854Y-38258641D01*
X65740819Y-38244441D01*
X65714220Y-38229429D01*
X65688057Y-38213606D01*
X65662328Y-38196972D01*
X65637035Y-38179526D01*
X65612178Y-38161268D01*
X65587755Y-38142200D01*
X65563768Y-38122319D01*
X65540216Y-38101628D01*
X65517099Y-38080124D01*
X65494418Y-38057810D01*
X65472172Y-38034684D01*
X65450361Y-38010746D01*
X65428986Y-37985997D01*
X65408046Y-37960437D01*
X65387647Y-37934158D01*
X65367896Y-37907254D01*
X65348792Y-37879725D01*
X65330336Y-37851570D01*
X65312528Y-37822789D01*
X65295367Y-37793384D01*
X65278854Y-37763352D01*
X65262988Y-37732696D01*
X65247770Y-37701414D01*
X65233200Y-37669507D01*
X65219277Y-37636974D01*
X65206002Y-37603816D01*
X65193374Y-37570032D01*
X65181394Y-37535623D01*
X65170061Y-37500589D01*
X65159376Y-37464929D01*
X65149339Y-37428644D01*
X65139949Y-37391734D01*
X65131206Y-37354198D01*
X65123112Y-37316037D01*
X65115665Y-37277250D01*
X65108865Y-37237838D01*
X65102713Y-37197800D01*
X65097209Y-37157138D01*
X65092352Y-37115849D01*
X65088142Y-37073936D01*
X65084581Y-37031397D01*
X65081667Y-36988232D01*
X65079400Y-36944442D01*
X65077781Y-36900027D01*
X65076810Y-36854987D01*
X65076486Y-36809321D01*
X65076590Y-36794666D01*
X65602219Y-36794666D01*
X65602409Y-36827700D01*
X65602980Y-36860214D01*
X65603931Y-36892208D01*
X65605262Y-36923683D01*
X65606974Y-36954639D01*
X65609067Y-36985075D01*
X65611540Y-37014992D01*
X65614393Y-37044389D01*
X65621241Y-37101625D01*
X65629610Y-37156783D01*
X65639502Y-37209863D01*
X65650915Y-37260864D01*
X65663850Y-37309788D01*
X65678306Y-37356634D01*
X65694285Y-37401402D01*
X65711785Y-37444092D01*
X65730806Y-37484704D01*
X65751350Y-37523239D01*
X65773415Y-37559695D01*
X65797002Y-37594073D01*
X65821777Y-37626281D01*
X65847406Y-37656412D01*
X65873889Y-37684465D01*
X65901225Y-37710439D01*
X65929416Y-37734336D01*
X65958460Y-37756155D01*
X65988359Y-37775895D01*
X66019111Y-37793558D01*
X66050717Y-37809143D01*
X66083177Y-37822650D01*
X66116491Y-37834079D01*
X66150658Y-37843429D01*
X66185680Y-37850702D01*
X66221556Y-37855897D01*
X66258285Y-37859014D01*
X66295868Y-37860053D01*
X66333464Y-37859006D01*
X66370229Y-37855863D01*
X66406164Y-37850625D01*
X66441269Y-37843292D01*
X66475544Y-37833864D01*
X66508989Y-37822341D01*
X66541604Y-37808722D01*
X66573389Y-37793009D01*
X66604344Y-37775200D01*
X66634469Y-37755296D01*
X66663764Y-37733297D01*
X66692229Y-37709203D01*
X66719864Y-37683013D01*
X66746668Y-37654729D01*
X66772643Y-37624349D01*
X66797788Y-37591875D01*
X66809922Y-37574822D01*
X66833034Y-37539245D01*
X66854606Y-37501704D01*
X66874636Y-37462200D01*
X66893126Y-37420732D01*
X66910075Y-37377300D01*
X66925484Y-37331906D01*
X66939351Y-37284547D01*
X66951678Y-37235225D01*
X66962464Y-37183940D01*
X66971709Y-37130691D01*
X66979413Y-37075479D01*
X66985576Y-37018303D01*
X66988080Y-36988979D01*
X66990199Y-36959164D01*
X66991932Y-36928858D01*
X66993280Y-36898062D01*
X66994243Y-36866774D01*
X66994821Y-36834995D01*
X66995014Y-36802726D01*
X66994826Y-36769967D01*
X66994262Y-36737728D01*
X66993323Y-36706008D01*
X66992008Y-36674808D01*
X66990318Y-36644127D01*
X66988252Y-36613965D01*
X66985810Y-36584323D01*
X66982992Y-36555201D01*
X66976230Y-36498515D01*
X66967966Y-36443906D01*
X66958198Y-36391376D01*
X66946928Y-36340924D01*
X66934156Y-36292549D01*
X66919880Y-36246253D01*
X66904102Y-36202035D01*
X66886822Y-36159894D01*
X66868038Y-36119832D01*
X66847752Y-36081847D01*
X66825964Y-36045940D01*
X66802672Y-36012112D01*
X66778153Y-35980347D01*
X66752679Y-35950631D01*
X66726251Y-35922965D01*
X66698869Y-35897348D01*
X66670533Y-35873781D01*
X66641243Y-35852263D01*
X66610999Y-35832794D01*
X66579801Y-35815374D01*
X66547649Y-35800004D01*
X66514542Y-35786683D01*
X66480482Y-35775412D01*
X66445467Y-35766190D01*
X66409499Y-35759017D01*
X66372576Y-35753894D01*
X66334699Y-35750820D01*
X66295868Y-35749795D01*
X66257121Y-35750808D01*
X66219342Y-35753848D01*
X66182532Y-35758914D01*
X66146690Y-35766007D01*
X66111816Y-35775126D01*
X66077910Y-35786271D01*
X66044973Y-35799443D01*
X66013005Y-35814642D01*
X65982005Y-35831866D01*
X65951973Y-35851118D01*
X65922909Y-35872395D01*
X65894814Y-35895700D01*
X65867687Y-35921030D01*
X65841529Y-35948387D01*
X65816339Y-35977771D01*
X65792118Y-36009181D01*
X65780434Y-36025609D01*
X65758181Y-36060035D01*
X65737410Y-36096557D01*
X65718124Y-36135174D01*
X65700321Y-36175887D01*
X65684001Y-36218694D01*
X65669166Y-36263597D01*
X65655813Y-36310594D01*
X65643945Y-36359687D01*
X65633560Y-36410875D01*
X65624658Y-36464158D01*
X65617240Y-36519536D01*
X65611306Y-36577010D01*
X65608895Y-36606532D01*
X65606855Y-36636578D01*
X65605186Y-36667148D01*
X65603888Y-36698242D01*
X65602961Y-36729860D01*
X65602404Y-36762001D01*
X65602219Y-36794666D01*
X65076590Y-36794666D01*
X65076812Y-36763248D01*
X65077791Y-36717812D01*
X65079422Y-36673014D01*
X65081705Y-36628852D01*
X65084640Y-36585327D01*
X65088228Y-36542438D01*
X65092469Y-36500187D01*
X65097361Y-36458573D01*
X65102906Y-36417595D01*
X65109103Y-36377254D01*
X65115953Y-36337550D01*
X65123455Y-36298483D01*
X65131609Y-36260052D01*
X65140416Y-36222259D01*
X65149875Y-36185102D01*
X65159987Y-36148583D01*
X65170750Y-36112700D01*
X65182166Y-36077453D01*
X65194235Y-36042844D01*
X65206956Y-36008872D01*
X65220329Y-35975536D01*
X65234354Y-35942838D01*
X65249032Y-35910776D01*
X65264362Y-35879351D01*
X65280345Y-35848562D01*
X65296980Y-35818411D01*
X65314267Y-35788897D01*
X65332206Y-35760019D01*
X65350798Y-35731778D01*
X65370043Y-35704174D01*
X65389939Y-35677207D01*
X65410488Y-35650877D01*
X65431581Y-35625226D01*
X65453109Y-35600390D01*
X65475072Y-35576368D01*
X65497471Y-35553160D01*
X65520305Y-35530767D01*
X65543574Y-35509188D01*
X65567279Y-35488423D01*
X65591419Y-35468473D01*
X65615994Y-35449337D01*
X65641004Y-35431015D01*
X65666450Y-35413508D01*
X65692331Y-35396815D01*
X65718647Y-35380936D01*
X65745399Y-35365871D01*
X65772586Y-35351621D01*
X65800208Y-35338185D01*
X65828266Y-35325563D01*
X65856758Y-35313756D01*
X65885687Y-35302763D01*
X65915050Y-35292584D01*
X65944849Y-35283219D01*
X65975083Y-35274669D01*
X66005752Y-35266933D01*
X66036857Y-35260012D01*
X66068396Y-35253905D01*
X66100372Y-35248612D01*
X66132782Y-35244133D01*
X66165628Y-35240469D01*
X66198909Y-35237618D01*
X66232625Y-35235583D01*
X66266777Y-35234361D01*
X66301364Y-35233954D01*
X66339477Y-35234424D01*
G37*
G36*
X64696688Y-38329000D02*
G01*
X63739867Y-38329000D01*
X63705122Y-38328748D01*
X63671260Y-38327992D01*
X63638280Y-38326733D01*
X63606182Y-38324969D01*
X63574967Y-38322703D01*
X63544635Y-38319932D01*
X63515185Y-38316658D01*
X63486618Y-38312879D01*
X63458933Y-38308598D01*
X63432131Y-38303812D01*
X63406211Y-38298523D01*
X63381174Y-38292729D01*
X63357019Y-38286433D01*
X63322441Y-38276043D01*
X63289850Y-38264519D01*
X63275896Y-38259002D01*
X63248528Y-38247565D01*
X63221881Y-38235589D01*
X63195954Y-38223076D01*
X63170747Y-38210024D01*
X63146261Y-38196434D01*
X63122495Y-38182306D01*
X63099449Y-38167640D01*
X63077124Y-38152436D01*
X63055519Y-38136694D01*
X63034634Y-38120414D01*
X63014470Y-38103595D01*
X62985574Y-38077359D01*
X62958299Y-38049911D01*
X62932644Y-38021254D01*
X62911056Y-37995021D01*
X62890102Y-37967799D01*
X62869783Y-37939586D01*
X62850098Y-37910383D01*
X62831048Y-37880189D01*
X62812632Y-37849005D01*
X62794850Y-37816831D01*
X62777703Y-37783666D01*
X62761190Y-37749511D01*
X62745312Y-37714366D01*
X62730068Y-37678231D01*
X62715459Y-37641105D01*
X62701484Y-37602989D01*
X62688144Y-37563882D01*
X62675438Y-37523785D01*
X62663367Y-37482698D01*
X62653976Y-37448223D01*
X62645192Y-37412940D01*
X62637013Y-37376850D01*
X62629440Y-37339953D01*
X62622473Y-37302249D01*
X62616111Y-37263738D01*
X62610356Y-37224420D01*
X62605206Y-37184294D01*
X62600663Y-37143362D01*
X62596725Y-37101622D01*
X62593393Y-37059075D01*
X62590666Y-37015721D01*
X62588546Y-36971560D01*
X62587031Y-36926591D01*
X62586123Y-36880816D01*
X62585820Y-36834233D01*
X62585993Y-36805657D01*
X63111552Y-36805657D01*
X63111755Y-36849226D01*
X63112363Y-36891638D01*
X63113377Y-36932894D01*
X63114796Y-36972994D01*
X63116621Y-37011937D01*
X63118851Y-37049724D01*
X63121487Y-37086355D01*
X63124528Y-37121829D01*
X63127974Y-37156147D01*
X63131826Y-37189309D01*
X63136084Y-37221314D01*
X63140747Y-37252163D01*
X63145816Y-37281856D01*
X63154179Y-37324227D01*
X63163454Y-37363996D01*
X63169985Y-37389101D01*
X63180228Y-37425072D01*
X63191008Y-37459022D01*
X63202324Y-37490949D01*
X63214177Y-37520854D01*
X63226567Y-37548737D01*
X63239494Y-37574598D01*
X63257564Y-37605934D01*
X63276588Y-37633674D01*
X63296566Y-37657820D01*
X63317527Y-37679184D01*
X63339805Y-37698945D01*
X63363399Y-37717102D01*
X63388310Y-37733658D01*
X63414538Y-37748610D01*
X63442082Y-37761959D01*
X63470942Y-37773706D01*
X63501120Y-37783849D01*
X63513413Y-37787399D01*
X63540776Y-37793810D01*
X63571840Y-37799305D01*
X63597568Y-37802826D01*
X63625378Y-37805831D01*
X63655271Y-37808321D01*
X63687245Y-37810296D01*
X63721302Y-37811756D01*
X63757441Y-37812701D01*
X63782691Y-37813044D01*
X63808866Y-37813159D01*
X64188053Y-37813159D01*
X64188053Y-35796690D01*
X63959686Y-35796690D01*
X63940460Y-35796718D01*
X63903209Y-35796947D01*
X63867555Y-35797405D01*
X63833499Y-35798092D01*
X63801042Y-35799008D01*
X63770182Y-35800153D01*
X63740921Y-35801527D01*
X63713257Y-35803130D01*
X63687192Y-35804961D01*
X63662725Y-35807022D01*
X63629020Y-35810543D01*
X63598912Y-35814579D01*
X63572399Y-35819129D01*
X63542641Y-35825999D01*
X63524979Y-35830939D01*
X63499228Y-35839358D01*
X63474367Y-35848988D01*
X63450398Y-35859829D01*
X63427320Y-35871880D01*
X63405132Y-35885142D01*
X63383835Y-35899615D01*
X63356826Y-35920796D01*
X63331400Y-35944128D01*
X63307557Y-35969614D01*
X63301797Y-35976290D01*
X63279567Y-36004626D01*
X63263746Y-36027591D01*
X63248655Y-36052024D01*
X63234294Y-36077926D01*
X63220663Y-36105296D01*
X63207761Y-36134134D01*
X63195590Y-36164441D01*
X63184148Y-36196216D01*
X63173436Y-36229459D01*
X63163454Y-36264170D01*
X63157169Y-36288439D01*
X63148502Y-36327236D01*
X63140747Y-36368905D01*
X63136084Y-36398280D01*
X63131826Y-36428931D01*
X63127974Y-36460859D01*
X63124528Y-36494064D01*
X63121487Y-36528545D01*
X63118851Y-36564303D01*
X63116621Y-36601337D01*
X63114796Y-36639648D01*
X63113377Y-36679235D01*
X63112363Y-36720099D01*
X63111755Y-36762240D01*
X63111552Y-36805657D01*
X62585993Y-36805657D01*
X62586142Y-36781188D01*
X62587108Y-36729213D01*
X62588718Y-36678308D01*
X62590972Y-36628474D01*
X62593870Y-36579710D01*
X62597412Y-36532017D01*
X62601598Y-36485394D01*
X62606428Y-36439842D01*
X62611902Y-36395360D01*
X62618020Y-36351949D01*
X62624782Y-36309608D01*
X62632188Y-36268338D01*
X62640238Y-36228138D01*
X62648932Y-36189009D01*
X62658270Y-36150950D01*
X62668252Y-36113961D01*
X62678851Y-36077771D01*
X62690043Y-36042291D01*
X62701825Y-36007521D01*
X62714200Y-35973460D01*
X62727166Y-35940110D01*
X62740723Y-35907469D01*
X62754872Y-35875538D01*
X62769612Y-35844317D01*
X62784944Y-35813806D01*
X62800868Y-35784004D01*
X62817383Y-35754913D01*
X62834489Y-35726531D01*
X62852187Y-35698859D01*
X62870477Y-35671897D01*
X62889358Y-35645645D01*
X62908831Y-35620102D01*
X62928845Y-35595304D01*
X62949350Y-35571467D01*
X62970347Y-35548592D01*
X62991835Y-35526679D01*
X63013815Y-35505728D01*
X63036286Y-35485738D01*
X63059248Y-35466710D01*
X63082701Y-35448644D01*
X63106646Y-35431539D01*
X63131082Y-35415396D01*
X63156010Y-35400215D01*
X63181429Y-35385995D01*
X63207339Y-35372738D01*
X63233741Y-35360441D01*
X63260634Y-35349107D01*
X63288018Y-35338734D01*
X63320245Y-35328390D01*
X63355101Y-35319062D01*
X63379800Y-35313409D01*
X63405667Y-35308209D01*
X63432703Y-35303460D01*
X63460908Y-35299164D01*
X63490281Y-35295320D01*
X63520824Y-35291928D01*
X63552535Y-35288989D01*
X63585415Y-35286502D01*
X63619463Y-35284467D01*
X63654680Y-35282884D01*
X63691066Y-35281753D01*
X63728621Y-35281075D01*
X63767344Y-35280849D01*
X64696688Y-35280849D01*
X64696688Y-38329000D01*
G37*
G36*
X61040984Y-38329000D02*
G01*
X61523363Y-38329000D01*
X61523363Y-36123487D01*
X61556782Y-36162590D01*
X61590940Y-36200400D01*
X61625838Y-36236916D01*
X61661475Y-36272139D01*
X61697851Y-36306068D01*
X61734967Y-36338703D01*
X61772823Y-36370044D01*
X61811417Y-36400092D01*
X61850751Y-36428845D01*
X61890825Y-36456306D01*
X61931638Y-36482472D01*
X61973190Y-36507345D01*
X62015482Y-36530924D01*
X62058513Y-36553209D01*
X62102283Y-36574201D01*
X62146793Y-36593898D01*
X62146793Y-36031163D01*
X62123080Y-36021586D01*
X62099109Y-36010990D01*
X62074880Y-35999375D01*
X62050394Y-35986741D01*
X62025650Y-35973088D01*
X62000648Y-35958417D01*
X61975389Y-35942726D01*
X61949872Y-35926016D01*
X61924098Y-35908288D01*
X61898066Y-35889540D01*
X61871777Y-35869774D01*
X61845230Y-35848988D01*
X61818425Y-35827184D01*
X61791363Y-35804360D01*
X61764043Y-35780518D01*
X61736465Y-35755657D01*
X61709303Y-35729931D01*
X61683228Y-35703679D01*
X61658241Y-35676900D01*
X61634341Y-35649594D01*
X61611529Y-35621762D01*
X61589805Y-35593403D01*
X61569168Y-35564518D01*
X61549619Y-35535106D01*
X61531158Y-35505167D01*
X61513784Y-35474701D01*
X61497498Y-35443709D01*
X61482300Y-35412190D01*
X61468189Y-35380145D01*
X61455166Y-35347573D01*
X61443231Y-35314474D01*
X61432383Y-35280849D01*
X61040984Y-35280849D01*
X61040984Y-38329000D01*
G37*
M02*
